<?xml version="1.0" standalone="no"?>
<!DOCTYPE svg PUBLIC "-//W3C//DTD SVG 20010904//EN"
 "http://www.w3.org/TR/2001/REC-SVG-20010904/DTD/svg10.dtd">
<svg version="1.0" xmlns="http://www.w3.org/2000/svg"
 width="532.000000pt" height="532.000000pt" viewBox="0 0 532.000000 532.000000"
 preserveAspectRatio="xMidYMid meet">
<metadata>
Created by potrace 1.14, written by Peter Selinger 2001-2017
</metadata>
<g transform="translate(0.000000,532.000000) scale(0.100000,-0.100000)"
fill="#000000" stroke="none">
<path d="M2656 5088 c5 -14 1 -18 -19 -18 -14 0 -29 -5 -33 -12 -5 -7 -3 -8 6
-3 9 5 11 4 6 -4 -4 -6 -12 -8 -18 -5 -6 4 -15 0 -20 -7 -8 -11 -9 -10 -5 3 3
9 -1 22 -9 28 -8 7 -14 9 -14 4 0 -5 -17 -9 -37 -9 -21 0 -37 -4 -36 -10 1 -6
-23 -10 -53 -10 -30 0 -50 1 -44 3 5 2 10 8 10 14 0 6 -8 5 -17 -4 -11 -9 -37
-14 -65 -13 -32 0 -48 -3 -48 -12 0 -6 -8 -12 -17 -12 -10 0 -30 -2 -45 -4
-16 -2 -28 -1 -28 3 0 4 -7 7 -15 7 -8 0 -12 -4 -9 -8 2 -4 -5 -13 -16 -19
-11 -6 -20 -7 -20 -3 0 4 -7 -1 -15 -11 -8 -11 -15 -16 -15 -12 0 5 -7 3 -15
-4 -9 -7 -15 -8 -15 -2 0 5 -9 8 -20 5 -11 -3 -17 -9 -14 -14 3 -5 -1 -9 -8
-10 -34 -2 -63 -11 -70 -22 -4 -6 -8 -8 -8 -4 0 4 -8 3 -18 -2 -11 -6 -24 -6
-34 0 -12 7 -19 5 -25 -6 -5 -8 -17 -16 -28 -18 -11 -1 -33 -15 -48 -31 -24
-24 -30 -26 -45 -15 -9 7 -14 9 -10 5 10 -12 -12 -37 -25 -29 -5 3 -7 1 -4 -4
4 -6 -5 -19 -19 -28 -15 -9 -23 -12 -20 -6 4 6 3 11 -2 11 -6 0 -13 -7 -16
-16 -4 -10 -13 -13 -26 -9 -16 5 -19 3 -13 -11 5 -14 2 -16 -15 -12 -14 4 -22
2 -22 -7 0 -12 -34 -29 -52 -26 -5 1 -8 -7 -8 -17 0 -13 -2 -14 -9 -4 -6 10
-10 8 -14 -8 -4 -15 -11 -21 -21 -17 -9 4 -15 3 -14 -1 3 -14 -14 -42 -23 -36
-8 5 -13 -9 -10 -28 0 -4 -8 -5 -18 -3 -11 2 -22 -3 -25 -12 -4 -8 -12 -13
-20 -10 -8 3 -16 -2 -19 -15 -3 -11 -10 -17 -17 -13 -6 3 -10 3 -9 -2 4 -23
-3 -29 -30 -25 -24 3 -29 0 -35 -23 -4 -14 -4 -31 0 -37 5 -7 0 -9 -14 -6 -14
4 -20 2 -15 -5 4 -6 0 -8 -10 -4 -9 3 -16 3 -14 -1 3 -9 -86 -98 -95 -95 -5 2
-8 -4 -8 -12 0 -9 -9 -15 -23 -15 -16 0 -23 -6 -24 -20 -2 -20 -32 -59 -34
-43 -1 4 -4 -5 -8 -22 -4 -19 -13 -30 -23 -29 -11 1 -14 -4 -11 -14 4 -10 2
-13 -6 -8 -6 4 -11 4 -10 -1 3 -20 -2 -33 -13 -31 -7 2 -12 -3 -10 -9 2 -11
-9 -17 -29 -15 -3 0 -4 -13 -3 -29 2 -22 -2 -29 -11 -25 -9 3 -12 -2 -10 -14
2 -12 -4 -21 -17 -26 -16 -5 -18 -8 -7 -15 8 -5 11 -9 7 -10 -5 -1 -11 -2 -16
-3 -4 0 -22 -17 -41 -36 -18 -19 -39 -33 -45 -32 -6 2 -8 1 -4 -3 10 -10 -34
-56 -49 -51 -9 4 -10 -1 -3 -20 7 -17 7 -23 0 -19 -6 3 -10 1 -10 -5 0 -6 -5
-8 -10 -5 -5 3 -10 -1 -10 -9 0 -9 -4 -16 -9 -16 -4 0 -8 -10 -7 -22 1 -14 -4
-22 -12 -20 -6 1 -11 -1 -11 -5 4 -24 -2 -53 -10 -48 -5 3 -12 -4 -16 -15 -4
-11 -11 -17 -17 -14 -7 5 -9 1 -5 -9 3 -10 3 -17 -2 -17 -4 0 -6 -11 -4 -23 3
-13 -2 -30 -9 -38 -8 -8 -17 -22 -21 -31 -3 -10 -12 -15 -20 -12 -8 3 -17 -2
-21 -12 -4 -12 -2 -15 9 -11 8 4 17 2 20 -3 4 -6 1 -10 -6 -10 -8 0 -7 -5 2
-17 12 -15 12 -16 -1 -8 -13 8 -13 7 -1 -8 11 -14 11 -17 0 -17 -11 0 -11 -2
-2 -8 9 -6 8 -12 -6 -24 -11 -9 -23 -13 -27 -10 -5 4 -2 -2 6 -12 14 -18 13
-19 -2 -13 -13 4 -15 2 -11 -10 5 -12 3 -14 -8 -8 -12 7 -12 6 -1 -7 11 -14
10 -20 -5 -35 -13 -13 -17 -29 -15 -57 2 -25 0 -36 -7 -31 -6 3 -11 -1 -11 -9
0 -8 -9 -20 -21 -26 -15 -9 -18 -15 -9 -25 8 -9 8 -15 0 -20 -5 -3 -10 -3 -10
2 0 4 -5 1 -10 -7 -5 -9 -7 -28 -6 -43 2 -15 -1 -27 -5 -27 -5 0 -8 -6 -7 -12
2 -7 -1 -12 -7 -11 -11 1 -12 -83 -1 -94 3 -3 -1 -11 -10 -17 -16 -12 -30 -81
-14 -71 5 3 11 -3 14 -13 5 -15 16 -18 60 -18 30 1 58 5 63 10 5 5 2 6 -6 1
-9 -5 -12 -4 -7 3 4 7 13 12 21 12 7 0 12 8 11 18 -2 9 6 24 16 34 13 11 15
19 8 23 -7 4 -8 11 -1 18 5 7 11 17 13 22 1 6 6 9 10 7 5 -1 8 5 8 14 0 9 -5
12 -12 8 -7 -4 -3 3 10 15 12 12 20 26 17 32 -4 5 -1 9 4 9 6 0 10 3 10 8 -3
18 2 33 9 28 5 -3 7 12 5 32 -2 31 3 41 38 74 25 23 39 44 35 53 -3 8 0 17 6
21 7 4 6 9 -3 15 -11 7 -11 9 1 9 8 0 21 9 28 21 8 12 9 18 3 14 -6 -3 -11 -2
-11 3 0 6 7 12 15 16 8 3 15 16 15 30 0 14 5 28 11 31 6 4 8 13 5 21 -3 8 -1
14 4 14 6 0 6 9 1 23 -6 14 -6 30 0 38 5 8 9 10 9 6 0 -4 6 -2 14 5 10 9 11
15 2 20 -8 5 -7 8 3 8 11 0 11 3 1 15 -10 12 -9 16 4 21 9 3 16 13 16 21 0 8
4 12 9 9 10 -7 24 22 16 34 -3 5 4 7 16 5 16 -3 19 -1 12 6 -12 12 25 56 42
51 6 -2 7 -1 3 3 -8 8 32 56 42 50 4 -3 7 12 7 33 -1 30 4 39 23 49 14 7 21
13 16 13 -4 0 2 9 15 20 21 18 22 19 4 14 -19 -5 -19 -5 -2 9 9 8 17 20 17 26
0 7 5 9 12 5 8 -5 7 0 -2 11 -9 11 -10 16 -2 11 7 -4 12 -2 12 4 0 6 5 8 12 4
7 -5 8 -3 3 6 -5 8 1 20 16 32 20 17 21 19 4 13 -15 -4 -17 -3 -9 5 6 6 21 12
33 13 13 1 20 6 16 15 -2 7 -1 10 4 7 5 -3 16 4 24 15 9 13 20 18 31 14 9 -4
16 -3 14 2 -2 5 1 9 5 9 5 0 15 11 22 25 7 14 17 25 22 25 4 0 7 6 5 13 -2 9
1 11 10 6 10 -6 9 -3 -1 10 -12 15 -12 17 0 14 8 -2 13 2 12 9 -1 6 8 10 22 8
16 -1 25 3 25 12 0 8 4 11 10 8 6 -4 7 1 3 11 -4 12 -3 15 5 10 7 -4 12 -2 12
4 0 6 5 8 10 5 6 -3 10 -1 10 5 0 6 5 8 10 5 6 -4 10 -3 9 2 -4 14 13 43 21
38 4 -3 11 2 14 11 3 8 11 12 16 9 6 -4 9 -3 8 2 -4 11 28 54 35 47 3 -3 10 4
17 15 6 12 16 18 22 15 6 -4 8 -3 5 3 -7 11 60 80 69 71 3 -4 14 1 25 10 11 9
25 17 32 17 7 1 11 6 10 12 -2 7 6 10 17 8 13 -3 17 1 13 11 -4 10 0 12 11 8
9 -3 16 -1 16 6 0 6 5 8 10 5 6 -3 10 -2 10 4 0 5 14 12 30 16 18 4 27 11 23
18 -4 7 0 8 11 4 9 -4 15 -3 11 2 -3 6 3 14 12 20 10 5 18 13 18 18 0 4 12 8
26 8 19 0 25 4 22 16 -4 13 2 16 26 13 18 -2 36 3 46 12 9 9 19 14 22 10 3 -3
12 -1 20 5 7 6 13 8 13 3 0 -4 7 1 16 12 8 10 12 13 8 5 -5 -10 -3 -12 7 -5
19 12 32 12 48 0 11 -8 13 -8 7 2 -4 7 -2 12 4 12 6 0 8 5 5 11 -5 7 4 9 29 5
26 -4 35 -2 33 7 -1 7 10 13 26 15 15 2 27 9 27 16 0 8 15 12 43 11 23 -1 48
4 56 9 12 9 13 8 6 -4 -8 -13 -6 -13 8 -1 9 7 14 18 10 25 -5 7 -2 7 8 -1 8
-7 20 -8 28 -4 7 5 28 5 46 1 21 -5 38 -3 44 3 8 8 11 7 11 -2 0 -7 5 -9 10
-6 6 4 8 10 5 15 -3 5 0 12 6 16 8 4 9 3 5 -4 -4 -7 -3 -12 3 -12 5 0 12 6 14
13 3 7 6 5 6 -5 1 -21 21 -20 38 2 11 13 14 13 23 0 5 -8 10 -10 10 -4 0 6 7
11 15 11 8 0 15 -5 15 -10 0 -5 8 -3 17 4 15 12 16 12 8 -1 -8 -13 -7 -13 8
-1 14 11 17 11 17 0 0 -11 2 -11 10 1 9 13 11 13 20 0 6 -9 10 -10 10 -3 0 18
89 11 103 -7 13 -17 42 -26 33 -11 -8 13 47 9 56 -4 5 -6 8 -4 8 4 0 10 5 8
18 -6 9 -11 28 -21 42 -21 60 0 71 -2 64 -14 -5 -7 -2 -9 8 -5 9 3 21 0 27 -6
7 -7 11 -8 11 0 0 14 50 3 57 -13 2 -7 10 -11 17 -8 7 3 21 -4 31 -16 10 -11
23 -20 29 -20 6 0 4 5 -4 10 -11 7 -12 10 -2 10 8 0 16 -9 19 -20 4 -16 8 -18
19 -9 9 8 14 8 14 1 0 -6 9 -9 20 -7 13 2 20 -2 20 -11 0 -8 3 -13 8 -13 25 4
72 -2 68 -9 -3 -5 6 -15 19 -22 14 -7 25 -20 25 -27 0 -8 5 -11 10 -8 6 3 10
-1 10 -10 0 -9 5 -13 10 -10 6 3 10 2 10 -4 0 -5 14 -8 30 -6 17 2 30 -1 30
-6 0 -14 26 -39 40 -39 6 0 8 -4 5 -10 -3 -5 2 -10 11 -10 10 0 15 -3 11 -6
-9 -10 36 -55 50 -50 17 7 44 -4 38 -14 -3 -5 3 -13 12 -19 10 -6 12 -11 6
-11 -7 0 -13 -5 -13 -11 0 -5 5 -7 11 -4 6 4 9 0 7 -11 -2 -12 2 -18 11 -16 9
2 11 -3 7 -13 -3 -9 1 -18 9 -21 8 -4 13 -10 10 -14 -3 -4 5 -10 16 -13 13 -4
18 -10 13 -18 -4 -8 -3 -10 4 -5 7 4 12 1 12 -6 0 -10 2 -10 9 1 6 9 10 10 16
2 4 -8 15 -3 31 16 26 31 29 39 14 48 -5 3 -7 12 -4 20 4 8 9 13 13 11 3 -2
12 2 19 10 10 11 10 14 0 14 -10 0 -10 2 1 9 7 5 9 11 4 14 -5 3 -8 19 -7 36
1 16 -4 32 -10 34 -19 7 -13 45 10 63 10 8 14 13 8 10 -7 -3 -14 1 -18 9 -3 8
-12 15 -21 15 -8 0 -15 5 -15 10 0 6 -7 10 -15 10 -8 0 -15 6 -15 13 0 9 -3 8
-9 -2 -7 -11 -10 -9 -16 8 -3 12 -17 29 -31 37 -13 9 -24 24 -25 33 0 11 -2
12 -6 3 -4 -10 -8 -9 -19 5 -9 12 -13 13 -14 5 0 -7 -5 -10 -10 -7 -6 4 -8 11
-5 16 4 5 0 9 -9 9 -8 0 -16 5 -18 11 -2 5 -12 12 -23 13 -11 2 -19 9 -18 14
2 7 -4 9 -14 5 -10 -4 -14 -2 -9 5 4 7 -1 10 -14 9 -11 -1 -20 -6 -20 -11 0
-5 -10 2 -23 15 -13 13 -22 27 -21 30 2 3 -3 6 -11 7 -8 1 -22 3 -30 4 -8 1
-15 11 -15 22 0 13 -3 16 -8 10 -10 -16 -53 -10 -67 9 -7 9 -15 14 -18 10 -4
-3 -7 0 -7 8 0 10 -12 16 -37 17 -21 2 -39 7 -41 12 -2 6 -17 10 -33 10 -19 0
-29 5 -29 15 0 8 -6 12 -14 9 -8 -3 -17 0 -21 5 -3 6 -12 8 -18 4 -22 -14 -49
-14 -41 -1 6 10 4 10 -8 0 -16 -13 -35 -1 -25 16 3 4 -5 7 -18 7 -13 0 -21 -3
-18 -8 2 -4 -7 -2 -22 5 -19 8 -24 16 -19 31 5 16 3 19 -10 14 -9 -4 -16 -1
-17 6 0 7 -5 1 -10 -12 -8 -20 -11 -22 -26 -10 -14 12 -16 12 -9 -1 4 -8 0 -6
-8 4 -9 11 -19 17 -22 13 -4 -4 -13 -2 -21 4 -9 8 -13 8 -13 1 0 -6 -7 -9 -15
-6 -8 4 -13 9 -10 13 2 4 -1 8 -8 9 -7 0 -24 3 -39 5 -16 3 -26 0 -25 -7 1 -6
-12 -11 -30 -11 -18 0 -33 -4 -33 -10 0 -5 -9 1 -20 15 -12 15 -18 18 -14 8z"/>
<path d="M2355 4483 c3 -7 1 -13 -5 -13 -6 0 -8 -5 -4 -12 4 -6 3 -8 -4 -5
-14 10 -43 -3 -36 -15 10 -16 -70 -5 -82 11 -9 11 -12 12 -19 1 -6 -9 -4 -11
5 -5 9 6 11 4 5 -4 -4 -7 -18 -11 -31 -8 -13 2 -24 0 -24 -4 0 -5 -3 -8 -7 -8
-19 3 -34 -2 -29 -10 3 -4 -8 -7 -24 -5 -20 2 -33 -2 -43 -16 -8 -11 -17 -17
-21 -13 -10 10 -46 11 -40 1 3 -4 0 -8 -6 -8 -6 0 -9 -4 -6 -8 6 -10 -30 -9
-40 1 -8 8 -54 -39 -54 -54 0 -6 -4 -8 -9 -5 -5 3 -11 -5 -13 -18 -4 -18 -1
-23 11 -21 11 2 17 -6 18 -26 2 -21 -1 -28 -10 -23 -9 5 -9 4 -1 -5 15 -16 54
-22 54 -8 0 8 3 8 8 2 9 -13 35 -13 44 -1 7 10 28 16 63 19 11 1 23 7 27 12 5
6 8 5 8 -2 0 -7 5 -13 11 -13 5 0 8 4 4 9 -7 13 22 21 63 17 17 -1 32 3 32 8
0 7 3 8 8 1 4 -5 16 -10 27 -10 11 0 23 5 27 10 5 6 8 5 8 -3 0 -7 5 -10 10
-7 6 3 10 0 10 -7 0 -9 3 -9 10 2 9 14 14 7 11 -13 -1 -5 3 -6 9 -2 5 3 10 0
10 -7 0 -7 7 -2 16 10 9 13 22 21 29 18 7 -2 16 2 19 10 3 8 15 14 26 14 12 0
18 -4 15 -10 -3 -5 4 -11 17 -11 13 -1 30 -2 38 -3 8 0 18 4 22 9 5 6 8 5 8
-2 0 -7 7 -10 15 -7 8 4 12 11 8 17 -4 6 2 8 15 5 12 -4 20 -2 16 3 -7 12 3
11 28 -2 16 -9 19 -8 13 2 -6 9 -3 11 9 6 10 -4 22 -7 28 -7 6 0 7 -7 4 -16
-5 -14 -4 -15 9 -4 8 7 13 15 10 19 -2 4 6 6 18 5 12 -1 26 -3 30 -3 5 -1 6
-5 3 -10 -3 -5 14 -11 39 -13 25 -2 47 1 49 7 3 6 5 6 5 -1 1 -6 12 -9 26 -6
14 2 22 8 19 13 -3 5 1 10 8 10 30 3 54 -4 61 -18 8 -13 10 -13 20 0 14 17 72
34 63 18 -4 -6 4 -7 21 -2 33 9 66 3 58 -10 -4 -5 1 -9 9 -9 8 0 18 -5 22 -12
5 -7 3 -8 -7 -3 -11 7 -12 6 -2 -7 7 -8 10 -18 6 -21 -3 -4 -1 -7 5 -7 7 0 12
4 12 9 0 22 32 40 65 37 19 -1 35 1 35 6 0 5 8 5 18 0 9 -4 27 -7 39 -7 12 1
20 -2 17 -6 -3 -5 0 -9 6 -9 6 0 8 -5 4 -11 -4 -7 1 -7 15 1 17 9 26 9 37 -1
9 -7 14 -8 14 -1 0 6 9 10 20 9 20 -1 36 -29 26 -45 -3 -5 7 -8 22 -8 15 1 33
-3 41 -9 12 -8 13 -7 7 5 -4 9 -1 8 7 -2 8 -10 22 -18 31 -18 9 0 19 -6 22
-14 3 -8 12 -12 21 -9 8 3 19 0 24 -8 7 -12 9 -12 9 1 1 9 6 5 15 -10 7 -14
17 -25 22 -25 4 0 7 -3 6 -7 -2 -5 4 -8 13 -8 8 0 12 -4 9 -10 -3 -5 1 -10 9
-10 9 0 16 -8 16 -17 0 -9 3 -14 6 -10 8 8 28 -12 37 -36 6 -15 10 -16 28 -6
12 6 19 7 16 2 -3 -5 3 -16 14 -23 10 -8 19 -22 19 -32 0 -10 5 -18 10 -18 6
0 10 -9 10 -20 0 -11 5 -20 12 -20 6 0 9 -3 5 -6 -7 -7 17 -34 30 -34 5 0 17
-14 27 -30 9 -17 21 -28 25 -26 4 3 7 -22 6 -54 -1 -32 3 -56 7 -54 4 3 8 0 8
-7 0 -8 3 -9 13 0 17 13 28 4 20 -17 -4 -9 -2 -13 4 -9 6 4 16 1 22 -7 7 -8 8
-16 3 -18 -14 -5 -2 -76 15 -82 8 -3 12 -2 9 2 -3 5 0 9 7 9 8 0 12 -16 11
-41 0 -29 5 -46 19 -58 11 -10 16 -18 11 -19 -5 0 1 -4 14 -10 14 -5 20 -13
16 -20 -15 -24 -5 -69 20 -94 19 -18 25 -34 22 -51 -6 -32 3 -56 17 -47 5 3 7
1 3 -5 -3 -6 -2 -13 4 -17 7 -4 6 -13 -1 -27 -9 -16 -8 -19 2 -13 9 6 11 3 6
-8 -4 -10 -2 -16 6 -14 7 1 12 -11 12 -33 0 -38 10 -43 57 -27 16 5 26 13 23
17 -3 5 4 7 15 5 11 -2 20 1 20 6 0 6 5 7 10 4 6 -4 10 -3 9 2 -3 20 2 34 11
28 6 -3 10 1 10 10 0 8 6 18 13 21 17 6 21 65 4 61 -6 -1 -11 5 -12 13 -1 8
-7 14 -14 12 -8 -2 -11 3 -8 13 4 8 1 15 -5 15 -7 0 -6 5 2 15 7 8 8 15 4 15
-10 0 -10 63 1 79 3 6 1 11 -6 11 -8 0 -8 4 1 15 7 8 8 15 3 15 -5 0 -9 10 -9
23 1 12 -4 21 -12 19 -6 -1 -11 1 -11 5 5 31 -4 56 -21 60 -11 3 -17 9 -14 14
3 5 1 9 -4 9 -6 0 -8 10 -4 22 4 16 2 19 -9 13 -11 -7 -11 -5 1 10 8 10 11 16
5 13 -5 -3 -16 0 -23 8 -9 10 -9 14 -1 14 8 0 7 5 -2 17 -8 9 -9 14 -3 10 6
-3 11 0 11 7 0 8 -7 12 -14 9 -8 -3 -23 4 -34 16 -11 11 -15 21 -10 21 18 0
-5 55 -27 65 -12 5 -22 13 -22 18 0 4 6 5 13 1 9 -6 9 -5 0 8 -7 8 -9 19 -5
23 4 5 1 5 -5 1 -7 -4 -13 -2 -13 4 0 6 -5 8 -10 5 -6 -4 -10 -3 -9 2 3 19 -2
34 -10 28 -5 -3 -11 5 -13 17 -2 16 -9 22 -20 20 -10 -2 -19 2 -19 8 -1 5 -2
16 -3 23 -1 6 3 18 8 26 9 12 8 13 -3 6 -11 -6 -13 -2 -8 20 5 28 1 36 -37 65
-18 13 -19 13 -11 0 4 -8 -8 2 -27 23 -20 20 -41 37 -47 37 -7 0 -10 4 -7 9 4
5 -3 7 -14 4 -18 -5 -25 5 -21 30 0 4 -4 7 -10 7 -6 0 -9 7 -5 15 3 8 0 14 -7
12 -7 -1 -11 6 -9 17 2 11 -1 15 -7 11 -6 -3 -11 -1 -11 5 0 15 -37 53 -55 56
-8 1 -13 -2 -10 -7 10 -14 -29 3 -41 19 -7 10 -16 12 -25 7 -12 -7 -12 -6 -1
7 10 13 10 17 -3 22 -9 3 -13 2 -10 -4 3 -6 2 -10 -4 -10 -6 0 -15 9 -21 19
-6 13 -17 17 -30 14 -11 -3 -20 -1 -20 3 0 5 -9 15 -21 22 -17 11 -20 11 -13
0 6 -10 4 -10 -9 1 -9 7 -15 16 -13 20 3 4 -7 7 -22 7 -18 -1 -26 4 -24 13 2
9 -4 12 -16 9 -11 -3 -27 -1 -37 5 -14 7 -16 7 -10 -3 6 -10 4 -12 -9 -7 -10
4 -22 7 -28 7 -6 0 -8 6 -5 13 3 9 -14 12 -69 10 -41 -1 -72 2 -69 7 8 13 -16
17 -97 16 -48 -1 -78 2 -78 9 0 7 -3 6 -8 -1 -8 -12 -71 -12 -91 1 -9 5 -12 4
-8 -2 9 -14 -85 -12 -95 2 -5 7 -8 7 -8 0 0 -6 -20 -11 -45 -11 -28 -1 -42 2
-38 9 4 6 1 7 -8 1 -24 -15 -73 -11 -93 8 -17 15 -20 16 -30 2 -14 -19 -49
-25 -58 -10 -6 8 -8 8 -8 0 0 -7 -24 -10 -70 -9 -38 2 -68 -1 -65 -5 3 -5 0
-12 -6 -16 -6 -3 -15 0 -20 7 -6 10 -9 11 -9 2 0 -7 -4 -13 -10 -13 -5 0 -10
6 -10 14 0 10 -7 12 -22 8 -16 -4 -19 -2 -13 8 6 9 4 11 -4 6 -7 -5 -19 0 -27
10 -9 11 -13 13 -9 7z"/>
<path d="M3997 4414 c-29 -29 -33 -40 -16 -46 9 -3 8 -10 -1 -28 -9 -18 -10
-25 -1 -28 6 -2 8 -9 5 -14 -4 -6 -3 -8 3 -5 11 7 45 -28 36 -37 -4 -3 2 -6
11 -6 13 0 17 -6 13 -19 -3 -15 -1 -18 11 -14 11 5 14 2 9 -10 -4 -11 -1 -17
8 -17 9 0 15 -9 15 -22 0 -19 2 -20 10 -8 6 9 10 10 10 3 0 -17 57 -73 66 -65
4 4 4 -2 0 -13 -4 -11 -4 -16 0 -13 11 12 31 -16 26 -37 -3 -11 -2 -17 2 -13
9 7 46 -27 46 -43 0 -5 5 -7 10 -4 6 3 10 -1 10 -9 0 -9 5 -16 10 -16 6 0 21
-11 34 -25 13 -13 27 -21 32 -17 4 4 2 -1 -5 -10 -10 -14 -10 -18 -1 -18 7 0
10 -7 6 -15 -3 -8 -2 -14 2 -14 27 4 32 -2 21 -22 -7 -14 -7 -19 0 -15 10 7
34 -27 25 -36 -2 -3 3 -11 13 -19 13 -11 15 -11 9 -1 -7 11 -4 11 12 1 11 -7
19 -21 17 -31 -2 -11 2 -18 11 -18 9 0 14 -10 14 -29 0 -30 24 -49 36 -29 5 7
2 8 -6 3 -9 -5 -11 -4 -6 4 10 15 29 3 22 -14 -6 -16 17 -38 30 -27 4 4 2 -1
-5 -10 -12 -16 -11 -18 6 -18 13 0 19 -8 21 -27 1 -15 9 -31 17 -36 9 -4 12
-13 9 -19 -4 -6 -3 -8 2 -5 23 14 57 -40 42 -67 -8 -14 -6 -19 10 -23 13 -3
19 -12 17 -23 -2 -10 3 -21 11 -24 8 -3 14 -12 14 -21 0 -8 5 -15 11 -15 5 0
7 -4 4 -10 -3 -5 -1 -10 6 -10 8 0 7 -5 -2 -17 -12 -14 -12 -16 0 -8 11 6 13
4 8 -8 -3 -9 -3 -16 1 -16 26 4 32 -2 22 -20 -8 -16 -6 -21 10 -26 16 -5 19
-13 15 -35 -3 -18 0 -30 9 -33 15 -6 28 -57 15 -57 -5 0 -9 -5 -9 -11 0 -5 6
-7 13 -3 7 5 7 1 -3 -12 -8 -10 -10 -16 -6 -12 5 4 15 3 23 -3 10 -9 10 -15 2
-25 -6 -8 -8 -14 -3 -14 7 0 10 -92 3 -110 -1 -3 -1 -9 0 -13 7 -40 7 -99 0
-103 -5 -3 -4 -15 2 -26 9 -16 8 -23 -2 -29 -12 -7 -12 -9 0 -9 10 0 11 -3 2
-13 -6 -8 -9 -16 -6 -18 2 -3 6 -21 8 -41 3 -26 0 -39 -10 -42 -8 -3 -12 -10
-8 -15 3 -5 1 -13 -5 -16 -8 -5 -8 -11 0 -20 8 -9 6 -14 -5 -19 -11 -4 -14
-13 -10 -29 4 -13 7 -30 8 -38 2 -8 6 -20 10 -26 5 -8 3 -13 -3 -13 -7 0 -9
-7 -6 -17 4 -10 4 -14 0 -10 -4 4 -14 1 -23 -6 -14 -11 -15 -10 -1 8 11 16 11
17 0 8 -8 -7 -15 -21 -17 -30 -9 -45 -8 -73 1 -77 6 -2 2 -5 -9 -5 -18 -1 -21
-7 -19 -50 1 -38 -2 -48 -13 -44 -9 4 -13 -4 -13 -26 0 -20 -5 -31 -14 -31
-10 0 -13 -9 -11 -27 3 -29 -10 -63 -29 -75 -7 -5 -6 -8 4 -8 10 0 11 -3 2
-12 -7 -7 -8 -17 -1 -30 7 -12 6 -18 -1 -18 -6 0 -8 -5 -5 -10 3 -6 -1 -13
-10 -16 -16 -7 -17 -34 0 -46 6 -5 6 -8 -2 -8 -6 0 -10 -9 -8 -20 2 -13 -2
-20 -11 -20 -8 0 -14 -6 -14 -14 0 -8 -6 -16 -13 -19 -14 -5 -15 -45 -2 -67 6
-10 4 -12 -10 -6 -15 5 -16 4 -5 -8 10 -12 9 -18 -2 -28 -7 -7 -19 -13 -25
-14 -30 -2 -34 -5 -28 -14 3 -5 2 -10 -4 -10 -5 0 -8 -11 -5 -25 3 -19 -6 -35
-42 -71 -33 -33 -43 -48 -34 -54 10 -6 9 -9 -1 -13 -11 -4 -11 -6 -1 -6 10 -1
10 -4 0 -15 -7 -8 -15 -12 -18 -11 -3 2 -7 -6 -7 -17 -1 -11 -10 -27 -20 -35
-10 -8 -12 -12 -5 -8 14 7 16 -4 3 -24 -5 -7 -13 -11 -18 -8 -5 3 -10 -3 -10
-14 -1 -11 2 -17 7 -14 11 7 1 -24 -12 -40 -5 -5 -17 -21 -28 -34 -11 -13 -20
-26 -20 -28 0 -11 31 -34 39 -28 5 3 12 1 16 -5 4 -6 13 -7 23 -2 9 4 32 7 49
6 18 -1 35 2 39 7 3 5 11 6 17 3 7 -4 9 -4 5 1 -5 5 1 15 12 22 11 8 18 17 16
21 -2 4 2 13 10 20 8 7 14 10 14 7 0 -3 6 0 14 7 8 7 12 16 10 20 -8 13 8 38
25 38 14 0 14 2 1 10 -11 7 -11 10 -2 10 7 0 10 5 7 10 -3 6 -1 10 6 10 7 0 9
3 6 7 -4 3 -2 12 5 20 6 7 8 16 5 19 -3 4 -1 12 6 20 32 36 37 45 39 70 2 14
8 29 15 31 7 3 11 9 8 13 -3 5 4 15 16 24 12 8 18 19 15 24 -3 6 1 17 9 25 8
9 15 22 15 30 0 9 4 17 9 19 6 2 12 17 15 33 2 17 5 32 5 35 1 3 6 -2 12 -10
8 -12 9 -8 5 16 -3 23 0 34 14 44 14 10 16 17 8 27 -8 9 -7 13 2 13 9 0 10 3
1 13 -8 10 -7 17 1 25 7 7 8 12 3 12 -6 0 -3 4 5 10 8 5 15 26 16 51 1 25 8
47 17 54 10 7 13 16 7 25 -5 8 -4 22 2 34 6 12 10 23 9 24 -2 2 1 7 5 10 4 4
4 0 -1 -8 -5 -9 -5 -12 1 -7 5 5 9 20 9 33 0 13 4 23 9 23 16 -1 24 24 15 49
-7 19 -6 25 9 29 14 3 18 13 16 43 -1 29 2 37 12 33 10 -4 12 0 7 13 -5 13 -3
15 8 9 12 -8 12 -6 0 9 -13 15 -13 19 0 27 11 7 11 9 0 9 -11 0 -11 3 -1 15 7
8 8 15 3 15 -5 0 -10 7 -10 15 0 8 4 15 9 15 5 0 7 4 4 9 -3 5 0 14 7 20 8 6
12 23 9 41 -3 23 0 30 12 30 10 0 13 5 9 17 -5 12 -3 14 8 8 11 -7 12 -6 2 6
-16 20 -17 31 -2 40 10 6 10 11 1 21 -7 8 -7 19 -2 28 5 9 5 19 -2 27 -7 9 -7
17 0 26 7 8 7 18 2 27 -5 9 -5 19 1 27 6 7 7 18 3 25 -6 10 -5 11 7 1 12 -10
15 -8 15 8 0 10 -4 19 -9 19 -4 0 -5 6 -1 12 15 23 11 49 -9 59 -13 8 -16 14
-9 21 8 8 8 17 1 30 -6 12 -6 18 0 18 6 0 8 7 5 15 -4 8 -1 15 6 15 6 0 8 5 5
10 -3 6 -1 10 5 10 7 0 10 6 8 13 -3 6 -11 12 -19 12 -15 0 -21 46 -7 56 5 3
2 18 -5 32 -8 15 -18 23 -22 19 -4 -4 -5 3 -2 15 3 13 0 26 -5 30 -7 4 -8 1
-3 -8 6 -10 5 -11 -4 -3 -6 6 -13 28 -14 50 -1 21 -7 38 -13 37 -6 -1 -10 12
-9 33 2 24 -1 34 -12 34 -8 0 -11 5 -8 10 3 6 2 10 -2 10 -5 0 -14 9 -21 21
-10 15 -10 24 -2 34 8 10 8 15 -1 21 -8 4 -9 3 -5 -4 4 -7 3 -12 -2 -12 -12 0
-22 24 -22 51 0 11 -6 22 -14 25 -8 3 -13 14 -11 25 2 10 -1 19 -6 19 -15 0
-39 26 -32 34 4 3 1 6 -5 6 -14 0 -11 40 3 40 5 0 -1 10 -15 21 -14 11 -19 17
-11 13 9 -4 12 -3 7 4 -4 6 -13 9 -21 5 -9 -3 -15 1 -15 11 0 9 -4 16 -10 16
-5 0 -10 7 -10 15 0 8 -5 15 -11 15 -5 0 -7 5 -4 10 3 6 1 10 -5 10 -6 0 -8 5
-5 10 3 6 -4 10 -16 10 -16 0 -20 5 -16 20 3 11 1 20 -3 20 -5 0 -17 13 -26
29 -10 17 -22 27 -28 24 -6 -3 -8 -3 -4 2 4 4 3 14 -2 21 -6 6 -9 18 -8 25 2
8 -3 13 -10 11 -7 -1 -15 5 -18 13 -3 8 -9 13 -13 11 -4 -3 -8 5 -8 17 -1 12
-7 23 -13 25 -5 2 -10 10 -10 18 0 9 -3 13 -7 11 -12 -7 -50 37 -47 55 1 12
-3 15 -14 10 -15 -5 -16 -4 -2 13 9 11 10 16 2 11 -19 -12 -52 3 -52 25 0 10
-4 19 -10 19 -5 0 -10 5 -10 10 0 6 -17 26 -37 46 -21 20 -31 33 -23 28 13 -7
13 -6 1 9 -8 11 -9 17 -3 17 6 0 9 6 6 13 -3 8 -17 13 -32 12 -41 -2 -92 52
-95 102 -2 43 0 42 -100 46 -26 1 -47 -2 -47 -8 0 -5 -4 -4 -8 3 -7 10 -15 6
-35 -14z m803 -1888 c0 -3 -4 -8 -10 -11 -5 -3 -10 -1 -10 4 0 6 5 11 10 11 6
0 10 -2 10 -4z"/>
<path d="M1636 4155 c-8 -8 -19 -15 -25 -15 -5 0 -14 -8 -20 -17 -5 -10 -13
-15 -16 -11 -4 4 -18 -5 -30 -18 -21 -22 -37 -30 -68 -33 -5 -1 -5 -5 -2 -11
3 -5 -1 -10 -10 -10 -9 0 -13 -4 -10 -10 3 -5 -1 -10 -9 -10 -14 0 -21 -22
-18 -51 1 -3 -12 -5 -28 -4 -16 1 -28 -3 -27 -9 1 -6 -11 -11 -28 -11 -19 -1
-30 -6 -30 -15 0 -8 -7 -15 -15 -16 -44 -3 -51 -5 -45 -14 3 -5 -1 -10 -9 -10
-9 0 -16 -5 -16 -11 0 -5 -5 -7 -10 -4 -6 4 -9 3 -8 -2 3 -10 -49 -63 -56 -56
-2 3 -3 -3 -2 -13 4 -23 -16 -46 -26 -31 -4 7 -11 0 -17 -16 -6 -15 -14 -27
-19 -27 -5 0 -8 -10 -7 -22 2 -24 -11 -41 -54 -72 -15 -10 -18 -16 -8 -12 11
3 16 2 12 -4 -3 -6 -11 -10 -16 -10 -5 0 -19 -9 -31 -20 -12 -10 -26 -17 -31
-13 -6 3 -7 1 -3 -5 4 -6 12 -9 19 -6 9 3 14 -7 15 -32 2 -21 -1 -33 -7 -30
-5 4 -13 1 -17 -5 -4 -8 -9 -7 -15 2 -7 11 -9 10 -9 -4 0 -10 -6 -20 -14 -23
-9 -3 -12 -12 -9 -21 5 -12 3 -14 -7 -8 -9 5 -11 4 -6 -3 12 -19 15 -72 5 -72
-6 0 -7 -4 -4 -10 3 -5 -1 -10 -9 -10 -9 0 -15 -6 -13 -12 1 -7 -4 -12 -10
-11 -7 2 -13 -5 -13 -14 0 -9 -3 -13 -7 -10 -3 4 -13 1 -21 -6 -13 -10 -14 -9
-7 2 5 10 4 12 -4 7 -7 -5 -9 -20 -5 -42 5 -27 3 -34 -7 -32 -9 2 -14 -5 -13
-19 0 -12 -2 -20 -5 -19 -3 2 -12 -2 -19 -10 -7 -8 -9 -14 -5 -14 4 0 -3 -10
-17 -21 -14 -11 -19 -17 -11 -13 11 6 13 3 7 -12 -5 -10 -9 -25 -9 -31 0 -7
-7 -13 -15 -13 -11 0 -12 -3 -3 -13 8 -10 7 -17 -1 -25 -7 -7 -9 -12 -5 -12 3
0 -5 -12 -19 -27 -21 -22 -25 -36 -22 -70 2 -24 -1 -41 -7 -40 -5 1 -10 -11
-10 -28 0 -16 -4 -33 -10 -37 -6 -5 -5 -12 4 -20 11 -11 13 -11 6 1 -5 9 -4
12 2 8 6 -4 11 -23 11 -42 0 -19 -4 -32 -9 -29 -5 3 -9 -1 -9 -8 0 -8 -5 -19
-12 -26 -16 -16 -19 -42 -4 -36 7 3 13 -2 13 -10 0 -8 -5 -12 -11 -9 -6 4 -5
-1 3 -10 11 -14 11 -17 0 -17 -9 0 -10 -3 -4 -8 14 -9 14 -45 0 -54 -6 -5 -6
-8 2 -8 14 0 13 -62 -2 -72 -6 -5 -6 -8 2 -8 7 0 10 -9 8 -20 -2 -13 2 -23 11
-27 13 -5 13 -7 2 -14 -10 -7 -10 -9 0 -9 6 0 12 -6 12 -14 0 -8 5 -16 12 -18
6 -2 13 -21 14 -42 1 -21 7 -42 14 -46 7 -4 10 -15 7 -25 -4 -9 -3 -14 3 -10
9 6 14 -8 11 -27 0 -5 4 -8 10 -8 8 0 7 -6 -2 -17 -10 -11 -10 -14 -1 -9 7 4
12 2 12 -4 0 -6 4 -9 9 -6 5 3 8 -8 7 -25 -1 -17 4 -38 12 -45 8 -8 14 -30 14
-49 0 -19 5 -38 11 -42 6 -4 7 -1 2 7 -6 9 -4 11 4 6 7 -5 10 -11 7 -14 -3 -3
-1 -11 5 -18 7 -8 7 -14 -1 -19 -6 -4 -2 -14 12 -25 13 -11 17 -19 10 -20 -7
0 0 -13 16 -28 16 -16 32 -41 36 -56 4 -15 10 -24 15 -22 12 8 8 -27 -4 -36
-6 -5 -6 -8 2 -8 7 0 10 -14 8 -40 -2 -22 1 -40 6 -40 5 0 9 -7 9 -16 0 -9 5
-12 13 -8 9 6 8 3 -1 -8 -11 -14 -10 -20 6 -36 12 -12 16 -24 11 -29 -5 -5 -1
-18 11 -31 11 -12 21 -32 22 -46 1 -13 7 -22 12 -19 5 4 7 -1 3 -11 -5 -11 -3
-15 5 -10 8 5 9 1 4 -12 -4 -10 -4 -15 0 -12 9 9 33 -15 26 -26 -3 -5 1 -5 9
-1 7 5 25 9 39 9 35 0 91 56 76 75 -7 10 -7 13 0 8 6 -3 18 3 27 14 9 10 12
19 6 19 -5 0 -8 4 -4 9 3 5 -2 17 -11 25 -9 9 -13 23 -10 31 5 13 -5 19 -26
16 -4 0 -5 6 -2 13 3 8 -1 25 -9 38 -7 13 -13 33 -12 46 1 12 -3 22 -9 22 -7
0 -7 3 -1 8 16 12 16 32 0 32 -8 0 -15 5 -15 11 0 5 5 7 12 3 6 -4 4 3 -5 16
-12 17 -14 28 -6 43 8 14 8 18 0 13 -7 -4 -11 1 -11 13 0 12 -5 21 -11 21 -6
0 -9 9 -6 20 3 11 0 20 -6 20 -8 0 -7 3 1 9 10 6 8 10 -9 14 -19 5 -20 8 -9
21 10 13 10 16 -1 16 -11 0 -11 2 1 10 13 8 13 10 -1 10 -22 0 -31 24 -16 39
7 7 8 12 2 11 -22 -5 -36 0 -30 10 3 6 -1 17 -9 26 -9 9 -14 20 -11 25 4 5 1
9 -4 9 -6 0 -11 9 -11 20 0 11 -5 20 -11 20 -6 0 -9 9 -6 20 3 10 0 21 -7 24
-6 3 -5 5 3 5 11 1 10 5 -4 15 -14 10 -20 26 -20 58 0 27 -4 42 -12 41 -7 -2
-10 6 -8 17 2 11 -1 20 -6 20 -6 0 -7 6 -3 12 11 17 12 48 2 42 -4 -3 -8 2 -8
10 0 9 -4 16 -9 16 -5 0 -7 14 -6 31 2 24 -1 29 -13 24 -9 -3 -13 -3 -9 1 4 4
1 14 -6 22 -10 13 -9 14 1 8 9 -6 11 -1 8 18 -3 14 -7 30 -11 35 -3 5 3 14 12
20 17 10 17 10 1 11 -10 0 -18 7 -18 15 0 8 -4 15 -8 15 -5 0 -7 14 -4 30 2
17 9 30 14 30 6 0 7 7 4 16 -3 9 -2 12 4 9 7 -4 8 5 5 26 -3 18 -2 35 2 38 18
13 32 50 22 56 -7 5 -6 11 1 20 8 10 8 15 0 20 -8 5 -8 11 1 21 6 8 8 14 3 14
-5 0 0 7 11 16 15 11 17 17 7 22 -9 6 -7 14 8 30 12 12 18 27 15 33 -4 6 1 17
11 24 11 8 15 15 11 15 -4 0 -3 9 3 20 6 11 15 18 21 15 5 -4 9 1 9 9 0 9 8
16 18 16 13 0 14 2 4 9 -8 4 -13 12 -11 17 5 16 29 35 37 30 5 -3 7 6 4 19 -2
15 0 25 7 25 7 0 11 6 9 14 -2 8 11 27 28 43 16 16 28 35 26 41 -2 7 4 19 13
28 9 9 13 24 10 32 -3 9 -3 13 1 10 12 -13 47 30 41 51 -3 12 -2 19 3 16 8 -5
52 29 51 39 -1 3 -1 16 -1 29 0 18 2 19 10 7 7 -11 10 -11 10 -2 0 9 12 11 41
8 29 -4 39 -2 36 7 -3 7 -9 11 -15 10 -5 -1 -9 11 -8 27 0 17 4 30 8 30 4 0
25 17 45 37 21 21 42 36 46 35 5 -1 6 2 2 7 -3 6 4 15 15 21 16 9 19 14 10 25
-9 10 -6 15 10 20 11 3 18 11 15 16 -4 5 0 9 7 9 8 0 14 10 15 21 2 24 23 52
23 30 0 -7 5 -9 13 -4 20 12 37 12 37 0 0 -8 3 -7 9 2 6 9 11 10 15 2 8 -13
46 17 46 38 0 8 3 12 6 8 4 -3 15 4 26 16 11 12 17 16 13 10 -10 -20 2 -15 25
9 11 12 23 19 26 15 4 -4 13 -2 20 4 8 6 14 7 18 0 8 -12 35 -3 55 16 8 9 17
10 25 4 8 -7 11 6 11 47 0 46 -4 57 -18 60 -9 2 -17 8 -17 13 0 5 -7 9 -15 9
-8 0 -15 5 -15 11 0 5 -6 7 -12 3 -8 -5 -8 -2 1 10 12 15 12 17 0 14 -8 -2
-17 -7 -21 -13 -5 -6 -8 -6 -8 2 0 6 -9 11 -20 10 -11 -1 -20 -5 -20 -9 0 -5
-9 -4 -19 2 -15 7 -23 6 -35 -5z"/>
<path d="M2765 4069 c-4 -6 -13 -8 -20 -5 -7 2 -25 -2 -40 -10 -15 -8 -31 -11
-36 -8 -5 3 -9 0 -9 -6 0 -8 -6 -8 -20 0 -15 8 -20 8 -20 -1 0 -8 -5 -7 -17 2
-15 12 -16 12 -11 -3 10 -24 -3 -30 -24 -11 -10 9 -21 13 -25 10 -3 -4 -12 -2
-20 4 -10 9 -13 8 -13 -1 0 -9 -3 -10 -13 -1 -16 12 -28 5 -21 -13 3 -8 -6
-12 -25 -11 -16 0 -27 3 -25 6 2 4 -3 10 -11 13 -23 8 -30 7 -30 -6 0 -7 -16
-12 -37 -13 -22 -1 -38 3 -38 9 0 6 -5 4 -10 -4 -9 -13 -11 -13 -20 0 -8 12
-10 12 -10 1 0 -9 -8 -12 -25 -9 -16 4 -29 0 -34 -9 -4 -9 -18 -13 -32 -11
-13 2 -30 -4 -37 -12 -12 -13 -13 -13 -7 0 4 9 1 8 -8 -3 -10 -12 -17 -14 -22
-7 -3 5 -12 7 -18 3 -6 -4 -24 -7 -39 -7 -16 -1 -28 -5 -27 -10 2 -19 -26 -24
-45 -8 -11 9 -16 12 -13 5 9 -15 -2 -45 -14 -37 -5 3 -9 -2 -9 -11 0 -9 -6
-15 -12 -12 -7 2 -19 -3 -26 -12 -11 -13 -12 -13 -6 -1 5 11 1 10 -13 -3 -16
-14 -22 -15 -26 -5 -4 10 -6 10 -6 -1 -1 -13 -64 -81 -76 -81 -3 0 -13 -7 -21
-15 -9 -8 -13 -15 -10 -15 3 0 -2 -8 -11 -18 -10 -11 -21 -17 -25 -15 -7 4
-12 -11 -10 -28 1 -4 -8 -5 -18 -2 -12 3 -20 0 -20 -6 0 -7 -4 -9 -10 -6 -5 3
-7 0 -4 -9 3 -8 -4 -25 -17 -38 -12 -13 -18 -16 -14 -8 8 13 6 13 -7 2 -9 -7
-20 -12 -24 -11 -24 4 -32 -3 -29 -26 1 -14 -2 -25 -6 -25 -5 0 -9 -7 -9 -15
0 -16 -34 -38 -44 -28 -3 3 -6 1 -6 -6 0 -7 -4 -10 -8 -7 -5 3 -9 -1 -9 -9 0
-8 5 -11 11 -8 6 3 -5 -9 -24 -26 -19 -18 -34 -38 -32 -44 2 -6 -5 -4 -14 4
-15 12 -17 12 -9 0 6 -11 4 -13 -8 -8 -17 6 -31 -18 -20 -35 3 -6 1 -8 -5 -4
-5 3 -20 -10 -32 -29 -12 -19 -26 -35 -31 -35 -6 0 -7 -4 -4 -10 3 -5 -1 -20
-8 -32 -8 -13 -14 -30 -12 -38 1 -8 -13 -31 -33 -50 -19 -19 -31 -29 -27 -21
6 9 4 12 -3 7 -7 -4 -12 -15 -12 -24 -1 -22 -25 -54 -34 -45 -4 4 -3 -4 2 -18
7 -16 6 -31 0 -43 -8 -14 -7 -17 1 -11 8 4 12 2 10 -6 -1 -8 -1 -19 0 -25 1
-14 61 -13 61 1 0 7 3 7 8 0 9 -13 52 -15 52 -3 0 5 6 6 13 2 9 -6 9 -4 1 7
-5 8 -9 20 -8 27 1 6 2 17 3 23 0 5 5 8 10 4 5 -3 12 3 16 14 3 11 13 18 23
17 27 -4 47 22 51 67 1 5 5 6 10 3 14 -9 21 20 8 34 -10 10 -8 12 6 7 10 -4
16 -3 12 2 -7 13 24 43 37 35 6 -4 9 -3 6 2 -4 5 12 27 35 49 22 22 37 33 31
25 -6 -10 -3 -10 7 2 9 9 19 14 23 11 3 -4 6 -1 6 6 0 7 4 9 10 6 6 -3 7 1 4
10 -4 10 2 24 16 37 17 16 19 22 8 29 -10 7 -9 9 4 9 9 0 20 5 24 12 5 7 3 8
-6 3 -9 -5 -11 -4 -6 3 4 7 16 12 27 12 25 0 91 70 84 89 -4 10 -2 11 8 3 10
-8 13 -6 14 10 3 29 10 33 30 17 14 -12 16 -12 8 0 -6 11 -3 13 13 9 14 -4 19
-2 16 7 -3 7 0 16 6 20 8 5 8 10 0 20 -8 10 -8 15 1 21 8 4 9 3 5 -4 -4 -7 -2
-12 3 -12 6 0 11 5 11 11 0 5 4 8 9 4 5 -3 13 0 16 6 4 5 13 8 21 5 8 -3 13
-2 11 2 -3 10 40 51 47 45 3 -4 6 -1 6 5 0 18 42 52 54 44 16 -10 66 -11 66
-1 0 5 5 9 11 9 5 0 7 -5 3 -12 -4 -7 -3 -8 5 -4 6 4 9 11 6 16 -3 4 2 11 11
14 22 9 26 8 18 -5 -5 -8 -1 -8 13 0 11 6 24 7 28 3 5 -4 5 -2 2 4 -4 7 1 18
10 25 11 9 14 10 9 2 -5 -10 1 -11 25 -6 21 4 30 3 26 -4 -4 -6 0 -13 8 -17 8
-3 14 -2 13 2 -1 4 1 16 5 27 6 17 14 20 47 17 22 -2 37 -8 34 -13 -3 -5 0 -9
5 -9 6 0 11 5 11 12 0 6 7 3 15 -8 13 -16 14 -16 9 -1 -6 18 0 19 91 19 22 0
46 5 53 11 16 13 234 18 226 5 -6 -9 44 -23 53 -14 3 3 13 1 20 -6 11 -9 16
-9 22 0 5 9 13 7 27 -6 11 -10 25 -17 32 -14 7 2 25 -9 39 -25 14 -15 22 -21
18 -13 -4 10 -1 9 8 -2 8 -10 17 -15 20 -11 4 3 9 -2 13 -11 3 -9 17 -16 31
-16 13 0 21 -4 18 -10 -3 -6 4 -10 17 -10 13 0 18 -3 12 -8 -8 -5 -5 -19 8
-47 10 -22 16 -31 13 -21 -5 16 -3 17 11 5 9 -7 32 -12 51 -10 21 1 33 -1 29
-7 -3 -5 5 -9 19 -9 14 0 22 3 19 8 -5 9 2 10 68 12 31 1 37 5 32 19 -3 9 0
26 6 38 6 11 7 20 2 20 -10 0 -9 30 2 48 4 7 2 12 -6 12 -9 0 -9 3 2 10 13 8
13 10 -1 10 -9 0 -19 6 -22 14 -9 23 -57 51 -65 38 -5 -6 -21 2 -44 22 -21 19
-35 35 -33 38 3 3 -6 11 -20 18 -13 7 -27 21 -30 31 -4 11 -14 16 -30 15 -13
-2 -23 2 -22 7 2 11 -4 13 -39 16 -8 0 -12 6 -9 11 3 6 0 11 -7 12 -7 0 -17 2
-23 2 -5 1 -16 5 -24 10 -10 6 -12 5 -7 -2 4 -7 2 -12 -3 -12 -6 0 -11 10 -11
23 0 12 -4 18 -8 12 -9 -13 -32 -12 -61 4 -13 7 -21 9 -18 3 4 -5 -4 -7 -18
-4 -14 2 -28 9 -32 15 -4 6 -1 7 7 2 9 -5 11 -4 6 4 -5 7 -12 9 -19 3 -17 -12
-80 -15 -72 -2 3 5 4 10 1 10 -3 0 -8 -5 -11 -11z"/>
<path d="M2600 3673 c-19 -3 -38 -9 -41 -15 -4 -6 -23 -11 -43 -11 -20 -1 -36
-5 -36 -9 0 -4 -9 -8 -19 -8 -11 0 -23 -5 -26 -10 -4 -6 -1 -9 7 -8 8 2 12 -5
11 -19 -2 -15 3 -23 12 -23 8 0 16 -7 16 -15 3 -30 4 -34 18 -47 12 -11 13
-10 6 2 -8 13 -7 13 9 0 23 -18 46 -22 40 -6 -3 8 3 12 18 10 13 -1 31 -3 41
-3 9 -1 17 -9 17 -18 0 -15 2 -16 10 -3 5 8 10 10 10 4 0 -6 10 -9 24 -7 15 3
25 -1 29 -12 4 -9 3 -14 -2 -11 -5 4 -4 -5 2 -19 7 -14 15 -25 19 -25 4 0 5
-8 1 -17 -3 -10 -3 -15 2 -11 4 4 14 3 22 -3 10 -9 13 -8 13 1 0 10 3 10 15 0
13 -11 14 -10 9 6 -4 10 -4 16 0 12 5 -4 20 4 35 18 14 13 27 20 29 14 2 -6 7
-8 12 -5 5 3 16 -2 24 -11 9 -9 23 -14 30 -11 8 3 24 -3 36 -13 13 -11 27 -17
31 -14 5 3 9 -2 9 -10 0 -10 7 -13 22 -11 13 3 29 -3 41 -16 13 -14 22 -17 31
-10 9 8 18 6 32 -5 10 -8 13 -12 5 -8 -9 4 -12 3 -8 -4 4 -5 18 -9 32 -8 13 2
23 -2 22 -8 -1 -6 4 -10 11 -8 6 1 12 -5 12 -13 0 -14 12 -19 33 -16 4 0 7 -3
7 -9 0 -5 7 -10 15 -10 13 0 19 -12 16 -32 0 -4 6 -5 14 -2 9 4 15 0 15 -10 0
-9 7 -16 16 -16 8 0 12 -4 9 -10 -3 -5 1 -10 10 -10 9 0 13 -4 10 -10 -3 -5
-1 -10 4 -10 6 0 10 -3 10 -7 -3 -19 2 -34 9 -29 4 2 9 -5 9 -16 1 -11 10 -26
20 -34 12 -9 13 -13 5 -14 -8 0 -10 -5 -5 -12 4 -7 6 -21 5 -30 -2 -10 3 -18
11 -18 9 0 13 -11 12 -32 -1 -18 3 -44 7 -57 7 -19 6 -22 -5 -15 -7 5 -6 2 3
-6 20 -19 32 -60 18 -60 -6 0 -5 -6 2 -15 9 -10 9 -15 1 -15 -8 0 -8 -6 1 -21
10 -17 10 -23 1 -26 -9 -3 -10 -10 -3 -22 5 -10 6 -21 2 -25 -3 -4 1 -4 11 0
12 4 17 1 17 -10 0 -9 5 -16 11 -16 5 0 7 -4 4 -10 -3 -6 1 -7 9 -4 11 4 16 0
16 -10 0 -10 8 -15 23 -14 12 0 27 0 32 -2 20 -5 36 0 30 10 -3 6 1 11 9 11
33 3 37 4 45 17 5 8 12 12 16 10 5 -1 9 9 9 25 1 15 -3 27 -9 27 -7 0 -7 3 0
8 14 9 13 65 0 74 -6 5 -6 8 1 8 6 0 11 7 11 15 0 8 -5 15 -11 15 -7 0 -7 3
-1 8 15 11 14 52 -2 52 -8 0 -11 5 -8 10 3 6 2 10 -2 10 -5 0 -8 14 -7 31 2
22 -2 29 -11 25 -10 -3 -12 2 -9 20 3 14 0 24 -7 24 -7 0 -8 4 -2 13 14 18 10
34 -12 51 -11 9 -14 16 -7 16 7 0 4 8 -8 20 -25 25 -27 48 -2 29 15 -12 15
-12 -1 7 -10 12 -17 25 -16 30 4 21 -2 35 -11 29 -5 -3 -10 3 -10 15 0 12 -4
18 -10 15 -5 -3 -10 -1 -10 5 0 6 -7 18 -15 26 -8 9 -15 13 -15 9 0 -3 -6 0
-14 7 -8 7 -11 17 -8 22 3 5 -2 7 -11 3 -10 -4 -20 0 -25 9 -5 9 -13 16 -18
16 -5 0 -8 4 -6 9 1 5 -1 9 -5 10 -37 3 -60 12 -71 27 -7 9 -15 15 -18 13 -10
-8 -74 23 -74 35 0 7 -8 10 -20 7 -12 -3 -22 1 -26 11 -3 9 -10 13 -16 10 -5
-3 -17 4 -27 15 -10 12 -24 21 -30 21 -7 0 -10 4 -7 9 4 5 -3 7 -14 4 -14 -4
-20 0 -20 12 0 12 -6 16 -20 12 -11 -3 -20 -2 -20 2 0 4 -9 7 -20 7 -11 0 -20
-4 -20 -9 0 -4 -5 -5 -10 -2 -6 4 -7 12 -3 18 4 7 0 6 -10 -2 -9 -7 -18 -11
-18 -7 -6 26 -4 53 4 63 14 19 -27 31 -96 29 -32 -1 -61 2 -63 6 -3 5 -10 5
-16 2 -15 -10 -99 -11 -104 -2 -3 4 -13 4 -22 -1 -19 -10 -42 -4 -42 10 0 6 5
7 12 3 7 -4 8 -3 4 4 -4 7 -8 11 -9 10 -1 0 -18 -3 -37 -5z"/>
<path d="M2006 3600 c-9 -17 -22 -30 -28 -30 -6 0 -8 -9 -5 -20 3 -11 1 -18
-4 -14 -5 3 -9 0 -9 -6 0 -6 -5 -8 -11 -4 -6 3 -10 -1 -9 -12 6 -52 -19 -91
-58 -88 -12 1 -26 -5 -31 -13 -4 -8 -12 -16 -17 -16 -9 -2 -10 -6 -13 -34 0
-7 -7 -12 -13 -10 -7 1 -12 -4 -11 -10 2 -7 -4 -13 -13 -13 -9 0 -14 -7 -12
-17 4 -20 -41 -65 -59 -59 -6 3 -14 -2 -17 -10 -3 -8 -15 -14 -26 -14 -12 0
-18 -4 -15 -10 3 -5 1 -10 -5 -10 -6 0 -8 -4 -5 -10 3 -5 1 -10 -5 -10 -6 0
-8 -4 -5 -10 3 -5 1 -10 -5 -10 -7 0 -10 -7 -6 -15 3 -8 2 -15 -2 -15 -4 0
-13 -9 -20 -21 -11 -17 -11 -20 0 -13 10 6 10 4 -1 -9 -7 -9 -17 -14 -22 -12
-4 3 -7 -7 -6 -22 1 -20 -2 -27 -13 -25 -10 1 -9 -2 4 -13 20 -15 20 -15 0
-15 -18 -1 -18 -1 -1 -11 13 -8 15 -14 7 -30 -6 -11 -15 -17 -20 -14 -6 3 -7
-1 -3 -10 3 -10 0 -21 -8 -26 -12 -8 -12 -11 1 -22 17 -14 20 -38 5 -50 -6 -6
-5 -10 3 -14 10 -4 8 -9 -6 -19 -14 -9 -18 -22 -16 -44 3 -23 0 -29 -9 -24 -8
5 -7 2 2 -9 7 -9 11 -28 9 -42 -3 -13 0 -26 6 -29 8 -3 7 -5 -1 -5 -6 -1 -9
-10 -5 -23 3 -14 2 -19 -6 -14 -8 5 -12 -3 -12 -24 0 -22 -4 -29 -12 -24 -7 4
-5 -2 6 -14 10 -12 23 -19 27 -16 5 3 6 -2 3 -11 -4 -9 -3 -15 2 -13 5 2 10
-1 12 -7 1 -5 -2 -10 -7 -10 -16 0 -25 -15 -10 -16 8 0 6 -4 -6 -9 -19 -8 -19
-9 2 -9 17 -1 21 -5 16 -18 -4 -9 -2 -14 3 -10 5 3 10 -3 10 -14 0 -10 -4 -19
-9 -19 -4 0 -5 -5 -1 -12 11 -18 10 -68 -1 -68 -5 0 -3 -5 5 -10 9 -6 10 -10
3 -10 -8 0 -7 -9 4 -30 8 -17 19 -27 25 -24 6 4 6 -1 -1 -14 -8 -15 -8 -23 1
-28 7 -5 8 -3 3 6 -5 8 -4 11 3 7 5 -4 9 -18 7 -32 -1 -15 3 -25 11 -25 7 0
16 -5 20 -12 5 -7 2 -8 -7 -3 -11 6 -11 5 -2 -5 6 -7 9 -19 6 -27 -3 -8 0 -13
8 -11 9 2 15 -8 17 -25 2 -20 8 -27 18 -23 7 3 13 2 12 -2 -3 -15 15 -42 24
-36 6 4 5 -4 -2 -16 -7 -12 -8 -20 -3 -17 5 3 15 -3 23 -13 8 -10 17 -17 22
-14 4 3 8 0 8 -5 0 -17 39 -51 45 -40 9 14 27 0 21 -17 -3 -9 0 -11 11 -7 11
4 14 3 9 -6 -12 -19 24 -10 46 12 10 9 18 22 18 27 0 6 3 9 8 8 4 -2 17 7 29
20 13 12 18 22 13 22 -5 0 -10 6 -10 14 0 8 -6 21 -12 28 -7 7 -20 22 -28 32
-13 18 -13 19 0 11 8 -4 3 3 -12 18 -25 23 -33 44 -29 70 1 5 -2 6 -7 3 -15
-9 -51 78 -40 97 7 13 5 17 -7 17 -17 0 -16 -6 -20 87 -1 40 1 70 6 67 5 -3 6
2 3 10 -3 9 -9 16 -13 16 -4 0 -13 11 -19 25 -9 19 -8 27 3 39 8 8 15 21 15
28 0 8 6 20 12 26 10 10 8 14 -10 18 -12 4 -19 10 -16 15 3 5 -1 9 -8 9 -10 0
-10 2 0 9 17 11 17 18 -3 38 -9 8 -14 22 -11 30 3 8 1 11 -4 8 -6 -3 -10 3
-10 14 0 12 6 21 13 21 8 0 7 4 -3 10 -13 8 -13 10 1 10 19 0 35 30 16 30 -8
0 -8 3 2 9 9 6 10 10 2 16 -9 5 -9 10 0 21 9 11 8 14 -2 14 -10 0 -10 3 -2 11
9 9 6 17 -8 33 -11 11 -15 22 -9 24 5 2 10 10 10 18 0 8 5 14 10 14 6 0 9 3 9
8 -3 20 2 32 12 26 8 -4 9 1 4 16 -6 19 -4 22 9 17 11 -4 15 -3 11 4 -4 6 1
17 11 25 11 9 13 12 6 9 -11 -6 -11 -3 0 16 16 28 48 61 49 52 0 -5 5 3 10 16
6 16 14 21 25 17 14 -5 15 -4 5 8 -10 12 -8 14 13 12 20 -3 26 2 31 25 3 15
13 30 20 33 8 3 12 12 9 21 -3 8 -1 15 6 15 6 0 8 5 5 10 -6 9 8 14 28 11 5
-1 6 3 3 7 -3 5 5 18 19 28 13 10 22 21 19 25 -2 4 4 10 13 13 13 5 14 9 5 15
-9 5 -7 13 10 27 22 19 23 19 8 -1 -14 -19 -14 -19 3 -6 9 7 17 20 17 27 0 8
5 14 10 14 6 0 10 7 10 15 0 8 5 15 10 15 6 0 9 6 8 13 -2 6 5 11 14 11 10 -1
14 4 11 12 -3 8 2 17 11 20 13 5 14 9 5 20 -9 11 -9 14 0 14 7 0 9 5 6 11 -4
5 -8 21 -10 35 -2 18 1 22 10 14 11 -9 25 -4 25 9 0 3 -31 6 -70 6 -38 0 -70
-4 -70 -9 0 -4 -7 -2 -17 5 -19 16 -18 16 -41 -9 -9 -10 -13 -12 -8 -5 5 8 7
15 4 18 -2 2 -12 -9 -22 -25z"/>
<path d="M3656 3533 c-4 -4 -26 -8 -50 -8 -24 0 -49 -5 -57 -12 -8 -6 -18 -11
-23 -10 -5 1 -10 -5 -11 -14 -2 -9 -6 -26 -10 -38 -4 -13 -2 -21 5 -21 6 0 8
-5 4 -12 -5 -8 0 -9 15 -5 26 6 47 -23 29 -41 -9 -9 -6 -10 10 -7 12 2 21 1
21 -3 -3 -20 2 -32 11 -27 6 4 10 -8 10 -29 0 -33 7 -41 33 -37 4 0 7 -3 7 -9
0 -5 7 -10 16 -10 8 0 12 -4 9 -10 -3 -5 -1 -10 5 -10 7 0 10 -6 7 -14 -4 -9
5 -21 19 -31 14 -9 22 -20 19 -25 -4 -6 -1 -10 5 -10 6 0 8 -4 5 -10 -3 -5 -1
-10 6 -10 7 0 10 -3 6 -6 -3 -4 1 -13 9 -21 11 -11 12 -19 4 -28 -8 -9 -6 -14
6 -19 9 -4 14 -13 10 -21 -3 -8 -2 -15 2 -15 5 0 7 -16 6 -35 -2 -24 2 -38 11
-41 9 -4 13 -18 11 -40 -1 -19 2 -34 8 -34 7 0 8 -3 1 -8 -5 -4 -10 -16 -10
-27 0 -11 5 -23 10 -27 7 -5 6 -8 -1 -8 -6 0 -9 -18 -7 -47 3 -30 -1 -49 -9
-55 -7 -4 -8 -8 -3 -8 6 0 11 -18 12 -40 2 -25 -1 -39 -7 -35 -5 3 -7 -1 -4
-9 3 -8 -2 -16 -13 -19 -14 -4 -13 -5 5 -6 17 -1 22 -6 20 -18 -2 -10 -10 -17
-18 -15 -10 2 -11 0 -2 -11 14 -16 6 -28 -13 -21 -7 3 -16 1 -20 -5 -3 -6 -1
-11 4 -11 6 0 11 -7 11 -15 0 -8 4 -15 9 -15 13 0 0 -43 -15 -53 -7 -4 -11
-16 -9 -27 2 -11 0 -18 -4 -15 -11 6 -20 -26 -17 -65 2 -28 -5 -35 -29 -30 -5
1 -5 -4 2 -11 9 -9 7 -16 -7 -31 -12 -14 -17 -31 -14 -57 3 -28 -1 -43 -16
-56 -11 -10 -17 -22 -14 -27 3 -5 -5 -18 -18 -29 -13 -11 -17 -18 -10 -14 20
10 14 -2 -15 -31 -16 -15 -21 -23 -13 -20 11 6 10 4 -2 -6 -10 -9 -14 -23 -11
-40 3 -14 0 -29 -6 -32 -7 -5 -8 -1 -4 11 3 10 2 15 -2 10 -5 -4 -9 -17 -11
-30 -1 -12 -3 -25 -3 -30 -1 -4 -7 -6 -13 -5 -7 2 -12 -3 -10 -9 1 -7 -5 -13
-13 -13 -8 0 -20 -10 -26 -22 -7 -13 -17 -26 -23 -30 -6 -4 -12 -12 -12 -18
-1 -5 -2 -14 -3 -20 0 -5 -8 -10 -17 -10 -8 0 -13 -4 -9 -9 9 -16 -15 -24 -31
-10 -8 7 -14 8 -13 3 4 -21 -2 -35 -11 -29 -5 3 -10 -1 -10 -10 0 -9 -4 -13
-10 -10 -5 3 -10 1 -10 -5 0 -7 -7 -10 -15 -6 -9 3 -15 0 -15 -10 0 -8 -4 -13
-8 -10 -5 3 -16 -4 -26 -16 -15 -17 -20 -18 -27 -7 -8 14 -10 12 -13 -13 -1
-7 -7 -12 -14 -10 -7 1 -12 -5 -12 -13 0 -15 -22 -20 -65 -15 -20 2 -37 19
-30 30 2 3 -8 7 -22 8 -14 1 -31 6 -38 12 -7 6 -15 6 -23 -2 -9 -9 -12 -9 -12
0 0 6 -7 9 -15 6 -8 -4 -12 -11 -8 -17 4 -6 0 -8 -11 -4 -9 4 -15 3 -12 -2 7
-11 -18 -33 -27 -24 -4 3 -7 1 -7 -6 0 -7 -6 -11 -14 -8 -9 4 -13 0 -12 -11 2
-9 -3 -22 -11 -27 -18 -13 -24 -48 -10 -57 7 -4 7 -11 1 -20 -14 -18 -12 -43
4 -44 25 -3 27 -4 13 -13 -9 -6 -10 -14 -5 -22 5 -8 9 -18 9 -24 0 -5 24 -10
53 -10 36 0 51 -3 48 -11 -5 -14 10 -13 39 3 11 6 29 9 39 7 20 -3 49 19 39
30 -3 3 8 1 26 -4 20 -6 33 -5 37 2 5 7 2 8 -7 4 -8 -4 -6 -1 4 8 11 8 27 13
38 11 11 -2 19 2 19 10 0 8 11 17 25 21 14 3 25 10 25 16 0 5 9 6 20 3 13 -4
22 -1 26 9 3 8 11 13 19 10 7 -3 15 2 19 11 3 9 11 13 17 10 6 -4 13 2 16 13
4 15 12 20 31 19 24 -2 65 25 68 46 1 4 2 12 3 18 0 5 6 7 11 4 6 -3 10 -1 10
4 0 6 4 10 8 9 4 -2 23 9 41 25 18 15 29 27 25 27 -4 0 6 11 24 23 17 13 29
27 25 30 -5 6 10 11 28 9 3 -1 6 5 6 13 0 8 -5 12 -11 9 -6 -3 0 4 14 16 14
12 19 19 13 15 -8 -4 -11 -1 -7 9 3 9 11 14 17 13 7 -1 12 10 11 24 0 18 4 25
13 22 7 -3 13 0 13 7 0 16 28 42 39 36 5 -4 8 2 7 11 -2 10 2 21 8 25 7 5 7 8
-3 8 -11 0 -11 3 0 16 10 13 10 17 -2 25 -8 5 -9 9 -3 9 6 0 17 13 24 30 7 16
15 28 19 26 6 -4 10 11 13 52 1 7 7 11 14 8 10 -4 12 3 7 24 -3 20 -1 30 6 30
7 0 9 5 6 10 -3 6 1 10 10 10 10 0 13 4 8 13 -11 18 -13 37 -3 37 5 0 11 9 15
20 3 11 11 19 18 17 6 -1 11 10 11 26 -1 15 4 27 10 27 6 0 4 5 -4 10 -13 9
-13 10 0 11 8 1 18 1 21 1 4 -1 5 8 2 18 -3 11 1 28 8 37 8 9 9 14 3 10 -7 -4
-14 0 -17 8 -4 10 -1 12 11 8 14 -5 15 -4 6 8 -18 22 -15 126 2 133 9 3 12 10
9 16 -3 5 -3 16 1 22 11 17 12 48 2 42 -4 -3 -8 0 -8 5 0 6 5 11 11 11 6 0 7
5 2 13 -12 19 -15 60 -4 53 10 -7 9 13 -2 31 -4 6 -3 14 3 18 6 4 7 12 3 18
-12 19 -11 107 2 100 5 -3 5 0 -2 7 -9 9 -9 19 -2 33 7 12 7 17 1 13 -6 -4 -9
15 -7 52 3 65 -2 82 -20 82 -14 0 -29 28 -26 48 1 7 -8 16 -21 22 -13 5 -18 9
-12 9 15 1 13 31 -2 31 -8 0 -11 6 -7 17 4 10 2 14 -5 9 -7 -4 -9 1 -7 16 5
22 -31 72 -45 63 -4 -2 -5 7 -2 21 4 24 2 25 -27 21 -17 -3 -29 -2 -27 1 2 4
0 16 -5 27 -7 19 -8 19 -8 1 -1 -18 -2 -18 -21 -1 -11 10 -20 24 -20 32 0 8
-4 12 -9 9 -5 -4 -7 4 -3 16 3 14 2 19 -6 14 -11 -6 -16 5 -13 26 0 4 -7 4
-16 1 -11 -4 -14 -3 -9 5 4 7 3 12 -2 12 -6 0 -9 8 -8 18 0 9 -5 16 -11 15
-12 -3 -17 9 -14 30 1 9 -4 9 -13 0z"/>
<path d="M2515 3380 c-4 -6 -11 -8 -16 -5 -5 4 -12 0 -15 -8 -2 -7 -11 -14
-19 -14 -10 0 -12 4 -5 12 7 8 0 10 -22 9 -19 -1 -38 -11 -49 -25 -11 -14 -22
-20 -33 -16 -10 4 -14 3 -11 -3 7 -11 -32 -33 -45 -25 -6 3 -10 2 -10 -4 0 -6
-10 -15 -21 -22 -15 -8 -19 -8 -15 0 12 19 -2 12 -25 -11 -20 -21 -21 -21 -15
-3 5 17 3 16 -15 -5 -11 -13 -28 -25 -37 -26 -9 -2 -21 -9 -27 -17 -5 -7 -20
-13 -32 -12 -14 1 -19 -3 -16 -12 3 -7 -2 -16 -12 -19 -9 -4 -14 -13 -10 -22
5 -12 3 -13 -10 -2 -13 11 -16 11 -13 -1 2 -8 -3 -13 -9 -11 -7 1 -13 -5 -13
-13 0 -8 -7 -15 -16 -15 -9 0 -14 -6 -11 -12 2 -7 0 -25 -4 -41 -5 -16 -4 -25
2 -22 5 4 14 -5 20 -19 7 -14 17 -23 22 -19 7 4 8 -1 4 -12 -6 -15 -3 -17 23
-11 23 4 29 3 24 -7 -6 -9 -4 -9 7 -2 8 6 26 10 41 9 15 0 25 3 22 7 -3 5 -1
9 5 9 5 0 13 10 16 21 6 17 9 19 16 8 8 -13 10 -12 13 11 0 6 7 15 15 19 7 5
10 14 7 20 -9 14 16 10 26 -4 5 -6 8 -5 8 2 0 7 7 10 15 7 8 -4 15 -1 15 6 0
6 3 9 8 7 8 -6 33 19 26 26 -3 2 2 7 11 10 8 4 15 1 15 -6 0 -7 7 -3 16 8 9
12 27 20 47 20 17 1 31 6 30 12 -1 5 21 11 49 12 28 1 57 8 64 16 14 14 58 9
48 -6 -3 -5 1 -9 9 -9 8 0 17 -9 20 -21 5 -17 8 -18 25 -8 16 10 23 10 37 -4
9 -10 21 -15 26 -12 5 4 9 2 9 -3 0 -15 49 -29 93 -28 30 1 42 7 53 26 7 14
13 21 14 15 0 -5 11 3 25 19 13 16 22 32 20 36 -3 5 1 11 7 13 10 4 10 6 0 6
-7 1 -10 6 -7 11 3 6 -1 10 -10 10 -9 0 -13 5 -10 10 6 9 -10 14 -42 13 -7 -1
-11 2 -9 6 3 4 -4 12 -15 19 -15 10 -19 10 -19 0 0 -9 -3 -9 -9 2 -6 8 -8 17
-5 21 2 4 -16 6 -42 4 -32 -2 -47 1 -51 11 -3 8 -11 14 -18 14 -8 0 -17 5 -21
12 -5 7 -3 8 6 3 8 -5 11 -4 7 2 -3 5 -24 8 -46 6 -28 -2 -41 1 -41 10 0 9 -2
9 -8 -1 -10 -15 -58 -9 -55 7 2 6 -4 8 -14 4 -11 -4 -14 -3 -9 5 4 7 5 12 2
12 -3 0 -8 -5 -11 -10z"/>
<path d="M3121 3072 c-5 -10 -12 -16 -15 -14 -3 1 -9 1 -13 1 -5 -1 -14 -2
-21 -3 -7 0 -18 -12 -26 -26 -7 -14 -18 -24 -25 -22 -8 1 -9 -3 -3 -15 5 -10
7 -24 5 -30 -3 -7 2 -16 11 -19 9 -3 16 -13 16 -21 0 -9 -5 -11 -12 -7 -10 6
-10 5 -1 -7 7 -9 12 -33 12 -55 -2 -70 1 -84 16 -84 16 0 16 -20 0 -32 -6 -5
-5 -8 3 -8 7 0 10 -5 7 -11 -4 -6 -12 -8 -19 -6 -8 3 -11 -18 -11 -72 0 -61
-3 -76 -15 -76 -8 -1 -14 -6 -12 -13 1 -7 -5 -12 -14 -12 -8 0 -13 -4 -10 -9
11 -16 -5 -40 -24 -36 -10 2 -21 -3 -24 -11 -3 -8 -14 -14 -25 -14 -11 0 -23
-5 -27 -12 -5 -7 -3 -8 6 -3 10 6 11 4 4 -6 -12 -19 -14 -39 -4 -39 4 0 6 -9
3 -20 -3 -11 -9 -18 -13 -15 -10 6 -22 -24 -15 -35 3 -5 11 -7 18 -4 7 2 21
-3 32 -12 11 -8 13 -12 5 -8 -13 6 -13 4 1 -10 20 -21 86 -27 101 -9 6 8 17
12 23 9 7 -2 18 4 25 14 8 11 17 17 20 15 4 -2 13 7 20 20 12 22 34 31 63 26
5 -1 6 3 2 9 -3 5 1 13 10 16 9 4 14 13 11 21 -3 7 2 21 12 31 9 9 16 25 14
34 -2 10 6 19 19 23 12 4 18 10 13 14 -16 11 -15 41 0 47 9 3 13 10 10 15 -3
5 1 9 8 9 9 0 9 3 -2 10 -8 5 -10 10 -3 10 6 0 9 9 5 22 -3 13 -1 19 5 15 6
-4 14 1 18 10 3 10 1 19 -5 21 -8 3 -7 8 1 19 10 11 10 14 -2 11 -8 -2 -13 3
-11 10 1 6 -3 12 -9 12 -5 0 -7 5 -4 10 4 6 1 18 -7 27 -11 15 -11 16 5 10 15
-6 16 -4 7 13 -8 14 -8 20 0 20 7 0 8 6 0 19 -7 14 -7 22 1 27 9 5 7 11 -6 20
-20 15 -32 69 -12 57 9 -5 9 -3 0 8 -14 17 -14 30 -1 47 8 9 5 12 -11 12 -11
0 -21 4 -21 8 0 5 -14 24 -31 43 -18 19 -28 28 -24 20 6 -10 4 -12 -6 -5 -23
14 -39 13 -48 -4z"/>
<path d="M2554 3023 c-5 -7 -28 -13 -51 -15 -23 -1 -40 -5 -37 -10 3 -4 -7 -8
-21 -8 -22 0 -26 4 -20 18 4 11 -1 9 -17 -8 -13 -13 -22 -28 -20 -33 1 -5 -2
-6 -7 -2 -6 3 -15 -4 -21 -15 -6 -11 -15 -18 -19 -16 -5 3 -7 -8 -5 -24 2 -17
-3 -35 -12 -44 -8 -9 -13 -20 -10 -25 3 -5 -1 -12 -10 -15 -8 -3 -12 -10 -9
-16 3 -5 2 -10 -4 -10 -6 0 -8 -7 -5 -15 4 -8 1 -15 -4 -15 -6 0 -14 -10 -17
-21 -4 -12 -10 -17 -14 -11 -4 7 -12 6 -24 -3 -16 -11 -13 -13 22 -10 30 2 41
-1 41 -11 0 -8 4 -14 9 -14 5 0 11 -10 13 -22 2 -13 9 -22 15 -21 7 2 10 -4 7
-12 -5 -11 1 -15 20 -15 14 0 26 -5 26 -11 0 -5 -6 -7 -12 -3 -7 4 -5 -2 6
-14 10 -12 23 -19 28 -16 4 3 8 2 7 -3 -4 -21 2 -33 17 -33 8 0 12 -5 9 -10
-4 -7 3 -9 19 -6 18 3 24 1 20 -6 -5 -8 -1 -9 11 -4 14 5 15 3 7 -6 -8 -10 1
-13 43 -13 31 0 51 3 48 9 -4 5 0 6 8 1 22 -14 72 -6 96 17 12 11 32 22 45 23
13 1 29 3 36 4 6 0 11 4 11 9 -3 20 3 31 22 37 11 4 25 17 31 30 6 14 16 21
24 18 8 -3 14 1 14 11 0 9 4 16 9 16 5 0 8 16 7 36 -1 20 2 38 7 41 4 3 2 12
-5 21 -11 13 -11 14 1 8 11 -7 11 -5 3 10 -6 10 -7 27 -2 39 6 17 4 21 -13 22
-12 1 -33 16 -48 32 -14 17 -29 28 -33 24 -3 -3 -6 -1 -6 6 0 16 -52 66 -70
66 -8 0 -13 7 -12 15 2 8 0 12 -4 8 -4 -4 -13 -3 -21 3 -7 7 -13 7 -13 2 0
-13 -53 -4 -62 10 -10 15 -44 16 -54 0z m16 -225 c0 -10 2 -10 8 -1 6 9 15 4
34 -17 14 -17 22 -30 16 -30 -6 0 -4 -7 3 -17 9 -10 9 -14 2 -10 -7 5 -17 -1
-23 -13 -13 -25 -46 -24 -74 3 -20 17 -20 17 0 31 10 8 16 18 12 22 -4 4 -2
14 5 22 10 13 9 14 -2 7 -10 -5 -12 -4 -7 3 10 16 26 15 26 0z"/>
<path d="M4323 2926 c1 -6 -6 -10 -15 -10 -10 1 -17 -1 -16 -5 2 -19 -3 -31
-11 -27 -13 8 -42 -4 -35 -15 3 -5 -1 -9 -9 -9 -8 0 -20 -7 -27 -15 -9 -11 -9
-15 -1 -15 7 0 9 -4 6 -10 -3 -5 -1 -10 4 -10 6 0 11 -7 11 -15 0 -8 -6 -15
-12 -15 -10 0 -10 -2 -1 -8 16 -10 11 -54 -10 -86 -11 -16 -13 -27 -6 -31 7
-5 6 -11 -2 -21 -9 -11 -9 -14 0 -14 8 0 9 -5 2 -18 -7 -13 -7 -22 0 -29 8 -8
7 -13 0 -17 -6 -4 -11 -12 -11 -17 0 -6 5 -7 12 -3 7 4 8 3 4 -4 -4 -7 -13
-12 -20 -12 -8 0 -12 -13 -10 -37 3 -54 2 -53 22 -53 9 0 13 -4 7 -8 -12 -9
-15 -52 -3 -52 4 0 8 -5 8 -11 0 -5 -6 -7 -12 -3 -10 6 -10 4 0 -8 9 -12 10
-18 2 -23 -6 -4 -9 -13 -7 -20 4 -8 -3 -11 -20 -9 -14 1 -22 0 -20 -3 3 -3 2
-16 -4 -30 -6 -16 -6 -22 1 -18 17 10 11 -7 -7 -22 -10 -8 -12 -11 -4 -8 10 6
10 3 -1 -16 -16 -26 -17 -37 -5 -56 5 -8 4 -13 -2 -13 -6 0 -7 -7 -4 -17 5
-12 3 -14 -8 -8 -12 8 -12 6 0 -8 11 -15 11 -17 -2 -17 -11 0 -14 -10 -13 -34
1 -19 -1 -33 -4 -31 -10 6 -27 -21 -24 -38 1 -9 -4 -17 -12 -17 -8 0 -11 -6
-7 -17 4 -10 2 -14 -4 -10 -6 4 -10 -1 -9 -11 0 -9 -5 -16 -12 -14 -10 2 -10
-2 -1 -19 6 -12 7 -19 1 -15 -5 3 -16 -2 -23 -11 -12 -14 -12 -16 1 -8 9 5 7
-1 -5 -15 -12 -14 -14 -20 -5 -15 8 4 6 -1 -5 -12 -11 -11 -24 -18 -29 -15 -5
3 -6 1 -3 -5 3 -5 -2 -17 -11 -26 -30 -28 -41 -45 -34 -53 4 -4 2 -4 -4 -1
-12 7 -42 -24 -37 -39 2 -5 -7 -14 -19 -19 -13 -6 -22 -18 -22 -27 1 -10 -2
-16 -6 -13 -5 3 -15 -1 -23 -9 -8 -8 -18 -12 -21 -8 -4 3 -5 0 -2 -8 4 -10 -5
-21 -24 -32 -17 -10 -29 -23 -28 -30 2 -7 -3 -12 -9 -11 -7 2 -13 -4 -13 -12
0 -8 -6 -15 -14 -15 -8 0 -19 -12 -24 -27 -6 -16 -11 -22 -11 -15 -1 10 -4 10
-15 0 -8 -7 -12 -16 -10 -19 2 -3 -8 -12 -21 -19 -22 -12 -31 -36 -22 -56 2
-6 -52 -38 -66 -39 -4 0 -11 -5 -15 -11 -4 -6 -15 -10 -24 -9 -9 2 -19 -4 -22
-12 -3 -8 -11 -11 -16 -8 -6 4 -10 3 -9 -2 4 -23 -2 -32 -18 -26 -12 5 -15 2
-10 -10 4 -12 2 -14 -11 -10 -9 3 -14 2 -10 -2 11 -11 -29 -38 -44 -29 -8 5
-9 2 -5 -11 6 -14 3 -16 -13 -12 -11 3 -18 2 -15 -3 4 -7 -15 -19 -30 -19 -3
-1 -17 -13 -31 -28 -14 -16 -33 -28 -43 -28 -9 -1 -15 -7 -13 -14 1 -7 -2 -9
-8 -6 -6 4 -18 -1 -26 -11 -9 -11 -12 -12 -8 -4 7 13 5 13 -9 1 -9 -7 -26 -11
-38 -8 -12 3 -19 3 -16 0 11 -11 -18 -29 -40 -25 -12 2 -41 -5 -63 -17 -23
-12 -40 -16 -40 -10 0 8 -5 7 -15 -1 -12 -10 -15 -10 -15 0 0 10 -3 10 -15 0
-12 -10 -15 -10 -15 0 0 10 -3 10 -15 0 -12 -10 -15 -10 -15 0 0 10 -3 10 -15
0 -12 -10 -15 -10 -15 0 0 10 -3 10 -15 0 -12 -10 -15 -10 -15 1 0 12 -2 12
-9 0 -7 -10 -10 -11 -16 -1 -6 10 -11 9 -20 -3 -13 -18 -59 -12 -48 7 4 7 1 7
-8 -1 -12 -10 -18 -10 -27 -1 -7 7 -12 8 -12 2 0 -5 -9 -10 -20 -10 -11 0 -20
4 -20 8 0 4 -7 5 -15 2 -10 -4 -15 0 -15 12 0 16 -2 17 -10 4 -7 -12 -10 -12
-10 -1 0 8 -6 11 -16 7 -20 -8 -57 22 -47 37 3 6 1 7 -5 3 -7 -4 -12 -3 -12 2
0 5 -12 7 -26 4 -16 -3 -30 1 -35 9 -7 11 -9 11 -9 1 0 -8 -12 -12 -34 -10
-19 1 -32 6 -30 10 3 4 -2 8 -10 8 -9 0 -16 5 -16 11 0 8 -6 7 -17 -2 -9 -8
-14 -9 -10 -3 3 6 -1 20 -9 32 -12 18 -23 21 -68 18 -38 -2 -53 0 -50 8 3 7
-5 12 -16 13 -24 2 -52 27 -42 38 4 5 0 4 -8 -1 -22 -13 -40 -14 -40 -1 0 5
-3 7 -7 4 -3 -4 -12 1 -19 11 -7 9 -14 12 -14 7 0 -12 -40 -15 -40 -3 0 7 -34
3 -50 -7 -6 -3 -10 -1 -10 5 0 7 -7 10 -15 6 -8 -3 -14 0 -12 7 1 7 -4 11 -11
9 -8 -1 -11 1 -8 6 2 4 -4 13 -15 20 -10 7 -19 8 -19 3 0 -5 -9 -7 -20 -4 -11
3 -17 9 -14 14 3 5 0 9 -7 9 -12 0 -49 38 -49 50 0 4 -10 6 -22 5 -22 -3 -42
10 -47 30 -1 6 -13 9 -27 8 -13 -1 -22 2 -19 6 2 5 -3 8 -12 7 -17 -1 -19 3
-22 39 -1 13 -5 14 -22 4 -16 -8 -20 -8 -14 1 6 9 2 9 -14 1 -16 -9 -21 -9
-21 0 0 9 -3 9 -14 0 -11 -9 -15 -9 -18 1 -3 8 -10 5 -23 -9 -10 -12 -22 -20
-27 -17 -4 3 -5 -3 -1 -12 5 -13 3 -15 -7 -9 -9 5 -11 4 -6 -4 13 -20 18 -63
6 -56 -16 10 -12 -2 7 -20 9 -10 18 -27 19 -39 1 -11 3 -23 3 -25 1 -2 8 2 16
9 9 8 15 9 15 2 0 -6 9 -9 20 -7 13 2 20 -2 20 -11 0 -8 7 -14 16 -14 8 0 13
-4 9 -9 -3 -5 7 -11 22 -13 16 -2 28 -8 28 -15 0 -6 4 -15 9 -20 5 -5 6 -3 2
4 -9 15 10 18 19 3 4 -6 11 -7 17 -4 6 4 9 3 6 -2 -6 -12 28 -44 38 -36 4 4 4
-1 1 -11 -4 -11 -3 -16 3 -12 6 3 10 1 10 -5 0 -6 5 -8 10 -5 6 3 10 1 10 -5
0 -6 5 -8 10 -5 5 3 10 2 10 -3 0 -6 10 -8 22 -4 16 4 19 2 13 -8 -6 -10 -4
-12 9 -7 9 4 15 3 13 -1 -10 -18 31 -38 71 -36 24 2 40 -1 37 -7 -4 -5 1 -9 9
-9 9 0 16 -6 16 -12 0 -9 4 -8 11 2 8 12 12 12 16 2 4 -9 8 -10 18 -2 9 8 17
7 26 -2 26 -24 53 -43 46 -32 -3 6 1 11 9 11 8 0 13 -6 10 -13 -4 -9 2 -13 17
-11 17 1 21 -3 19 -18 -2 -11 1 -16 5 -10 11 14 33 17 33 4 0 -6 8 -8 19 -4
12 4 21 0 25 -11 4 -10 13 -14 26 -11 11 3 20 0 20 -6 0 -8 3 -8 8 -2 9 13 42
15 39 3 -1 -6 8 -14 21 -19 13 -5 22 -5 22 1 0 5 7 7 15 4 8 -4 13 -9 11 -13
-2 -3 2 -12 10 -19 9 -8 14 -9 14 -2 0 6 5 8 10 5 6 -4 8 -10 5 -15 -3 -5 4
-7 15 -5 11 2 20 0 20 -4 0 -4 14 -6 31 -5 19 1 29 -2 26 -9 -3 -8 12 -12 49
-11 29 0 51 -3 48 -7 -7 -12 27 -27 47 -22 10 3 17 9 14 13 -8 14 35 19 48 5
9 -10 14 -9 25 4 7 9 11 10 7 4 -3 -7 -1 -13 4 -13 6 0 11 4 11 9 0 5 14 7 30
6 17 -1 30 2 30 9 0 8 2 8 8 0 4 -6 23 -10 42 -9 19 1 44 -2 55 -8 11 -5 17
-6 13 -2 -13 14 35 44 54 34 11 -6 19 -5 23 1 5 8 11 7 21 -1 11 -9 14 -8 14
4 0 9 5 19 12 23 7 5 8 2 3 -7 -6 -11 -5 -11 5 -2 7 6 19 9 26 6 8 -3 14 0 14
6 0 6 6 10 13 9 6 -2 11 3 9 10 -1 6 2 12 8 12 5 0 10 -4 10 -9 0 -6 12 -6 30
0 17 6 30 15 30 21 0 5 5 6 10 3 6 -3 10 -2 10 2 0 5 9 14 21 21 17 11 20 11
14 0 -5 -7 2 -2 15 10 18 19 24 21 31 10 6 -8 9 -9 9 -1 0 6 9 9 20 6 14 -4
20 -1 18 8 -2 8 4 14 12 14 8 0 22 8 31 17 11 12 19 14 26 7 8 -8 11 -6 10 7
-2 13 5 19 20 19 12 0 25 4 30 9 5 5 2 6 -6 1 -10 -6 -12 -4 -7 4 6 9 11 9 24
-1 9 -7 13 -8 9 -2 -4 6 3 20 16 30 21 19 21 19 7 -1 -14 -19 -14 -19 3 -6 9
7 17 24 17 37 0 13 6 24 13 25 6 1 23 2 37 2 14 1 24 7 23 14 -2 6 7 15 18 18
15 5 17 10 9 20 -8 10 -6 15 9 20 12 3 25 3 31 0 6 -4 9 -3 8 2 -4 10 45 59
55 55 5 -1 6 2 2 8 -3 5 1 13 10 16 13 6 14 8 3 15 -10 7 -10 9 0 9 6 0 12 7
12 15 0 8 5 14 12 12 6 -1 17 8 23 20 7 13 15 20 18 16 4 -3 7 1 7 11 0 10 5
14 11 11 6 -4 13 3 16 15 4 15 11 20 24 17 16 -4 26 6 17 16 -2 1 11 17 27 35
16 18 31 29 33 23 2 -7 8 -6 16 2 8 6 11 18 9 24 -3 7 2 16 11 19 9 3 16 12
16 20 0 8 3 13 8 11 4 -1 8 2 9 6 1 5 10 15 20 22 10 7 15 17 11 21 -5 4 22
37 60 72 37 36 60 62 52 58 -8 -4 -6 0 4 8 11 9 16 16 10 16 -5 0 -4 4 3 8 6
4 13 16 15 27 1 11 11 29 21 39 11 13 14 23 8 29 -6 6 -4 19 7 35 19 29 24 52
11 52 -15 0 3 34 32 61 15 15 25 30 22 33 -11 11 -10 46 0 46 6 0 7 3 4 6 -3
4 0 16 8 28 18 25 20 49 3 41 -7 -4 -6 -1 2 7 21 18 47 53 35 46 -6 -4 -11 2
-11 13 0 10 6 19 14 19 7 0 10 5 7 10 -3 6 -2 10 3 10 5 0 8 18 6 41 -2 27 1
42 11 45 7 3 12 16 10 30 -1 13 2 24 8 24 5 0 1 12 -9 28 -22 33 -26 99 -7
107 8 2 11 9 8 15 -3 5 -1 10 5 10 6 0 8 5 5 10 -3 6 4 10 17 10 17 0 19 3 9
9 -7 5 -10 14 -7 20 4 6 1 11 -6 11 -8 0 -6 5 5 11 12 7 15 14 9 22 -14 17
-11 95 4 101 7 3 11 14 9 26 -2 11 1 20 6 20 6 0 7 6 0 17 -7 13 -5 21 7 30
16 11 16 12 0 13 -10 0 -17 5 -15 12 1 7 -5 13 -13 14 -37 3 -41 4 -36 12 2 4
-15 8 -39 8 -28 1 -43 -3 -42 -10z"/>
<path d="M1140 2811 c0 -6 -8 -11 -17 -11 -14 0 -15 -2 -4 -9 11 -7 9 -10 -7
-15 -11 -4 -23 -14 -26 -22 -3 -9 -11 -12 -18 -8 -7 4 -10 4 -6 -1 4 -4 -2
-17 -14 -27 -13 -11 -18 -22 -13 -26 21 -15 33 -48 23 -65 -5 -11 -5 -17 0
-17 6 0 9 -11 8 -24 0 -13 -4 -22 -8 -19 -5 2 -8 0 -8 -6 0 -5 6 -11 13 -14 9
-3 9 -7 -1 -20 -11 -13 -10 -19 7 -36 13 -13 16 -21 9 -21 -10 0 -10 -2 -2 -8
7 -4 12 -31 12 -62 -1 -84 1 -102 11 -96 5 3 11 -3 14 -14 3 -11 1 -18 -3 -15
-4 3 -6 -4 -3 -15 3 -11 9 -20 14 -20 5 0 9 -5 9 -12 0 -6 8 -20 18 -31 9 -11
11 -17 5 -13 -19 11 -16 -5 5 -21 11 -10 12 -12 2 -8 -8 4 -5 -3 8 -14 17 -14
22 -27 17 -41 -5 -16 3 -30 37 -62 24 -23 37 -38 29 -33 -10 5 -12 4 -7 -3 4
-7 13 -12 21 -12 7 0 15 -7 19 -15 3 -8 0 -15 -7 -15 -9 0 -8 -3 1 -9 8 -4 13
-12 11 -16 -3 -11 24 -45 36 -45 6 0 18 -9 28 -20 16 -19 35 -25 67 -20 8 1
12 -1 8 -6 -4 -4 -2 -14 5 -22 10 -13 9 -14 -2 -7 -10 6 -12 4 -7 -4 5 -7 14
-10 21 -7 8 3 12 -2 11 -12 -2 -9 5 -24 15 -33 10 -9 16 -19 12 -23 -3 -3 1
-6 10 -6 9 0 17 -5 17 -11 0 -5 5 -7 10 -4 6 3 10 -1 10 -9 0 -9 7 -16 15 -16
8 0 12 -6 9 -14 -7 -20 27 -52 50 -48 10 2 16 0 14 -5 -5 -10 38 -53 46 -45 3
3 6 -2 6 -11 0 -10 5 -17 11 -17 5 0 7 -4 4 -10 -3 -6 1 -7 9 -4 9 3 16 1 16
-6 0 -6 5 -8 10 -5 15 9 41 -15 33 -29 -4 -6 0 -5 9 2 14 11 20 10 38 -8 12
-12 24 -19 27 -16 9 8 35 -23 28 -34 -3 -5 -1 -10 4 -10 6 0 11 5 11 12 0 6 6
3 14 -7 8 -11 12 -24 8 -29 -3 -5 2 -6 13 -3 9 4 25 2 33 -5 13 -11 15 -11 8
2 -4 8 1 5 12 -7 11 -12 22 -19 26 -16 3 4 6 1 6 -6 0 -7 5 -9 10 -6 6 3 10 2
10 -4 0 -5 15 -8 33 -7 23 3 37 -3 49 -18 10 -11 18 -16 18 -9 0 8 9 9 30 3
17 -5 30 -5 30 0 0 6 9 6 23 1 12 -5 21 -15 19 -21 -2 -7 3 -10 12 -7 8 3 17
1 20 -6 3 -9 5 -9 5 1 1 6 10 12 22 12 11 0 18 -4 15 -9 -3 -5 6 -12 21 -16
19 -4 29 -2 35 10 5 8 14 12 20 9 6 -4 14 0 19 7 7 11 9 11 9 1 0 -7 5 -10 10
-7 5 3 10 -1 10 -11 0 -11 6 -15 20 -11 11 3 23 1 26 -4 4 -6 11 -6 19 1 10 8
15 8 20 -1 6 -8 10 -7 17 5 8 14 12 15 26 4 12 -10 14 -10 8 0 -6 11 5 17 27
13 4 0 7 4 7 10 0 5 5 7 10 4 6 -3 10 -1 10 5 0 7 7 10 15 6 8 -3 15 0 15 7 0
8 3 8 9 -2 7 -11 10 -11 15 0 5 11 7 11 12 2 4 -9 14 -4 34 15 22 21 25 30 16
41 -6 8 -10 16 -8 18 7 10 0 23 -10 17 -8 -5 -9 -2 -5 10 6 14 4 15 -14 5 -16
-8 -20 -8 -14 0 5 8 -1 10 -18 6 -24 -6 -25 -5 -22 27 3 18 2 27 -1 20 -3 -6
-10 -10 -15 -6 -5 3 -8 0 -7 -7 2 -9 -13 -13 -50 -14 -40 0 -56 -5 -63 -18 -6
-10 -15 -14 -22 -10 -16 10 -47 11 -47 2 0 -12 -41 3 -47 17 -3 8 -16 12 -35
10 -19 -2 -32 2 -35 11 -4 10 -18 13 -42 12 -20 -2 -42 0 -48 4 -6 4 -14 1
-16 -5 -3 -8 -6 -6 -6 5 -1 9 -4 16 -8 16 -22 -4 -33 2 -27 14 5 7 0 6 -11 -3
-17 -13 -18 -13 -13 1 5 13 0 16 -28 14 -19 -1 -34 3 -34 9 0 6 -5 4 -10 -4
-7 -10 -10 -11 -10 -2 0 7 -11 17 -25 24 -13 6 -22 15 -18 21 4 6 -2 8 -15 5
-15 -4 -22 -2 -22 9 0 8 -4 11 -10 8 -5 -3 -10 -1 -10 5 0 7 -7 9 -16 6 -8 -3
-13 -2 -10 3 3 5 -5 12 -18 15 -19 5 -24 11 -21 27 3 12 2 19 -2 16 -9 -9 -64
23 -58 33 3 6 -1 7 -10 4 -18 -7 -47 25 -37 41 14 23 8 31 -22 30 -35 -1 -59
12 -49 28 3 5 2 7 -4 4 -9 -6 -38 25 -34 38 1 3 -7 15 -18 24 -11 10 -18 21
-14 25 3 3 -1 6 -10 6 -10 0 -17 8 -17 17 0 9 -3 13 -7 10 -3 -4 -14 7 -24 23
-11 17 -26 30 -34 30 -9 0 -13 5 -10 10 3 6 -1 10 -10 10 -9 0 -13 5 -10 10 3
6 -1 10 -10 10 -9 0 -13 5 -10 10 3 6 -1 10 -9 10 -9 0 -16 3 -17 8 0 4 -2 20
-3 36 -1 15 -9 34 -19 41 -9 7 -17 18 -17 24 0 7 -5 9 -12 5 -7 -5 -9 -2 -5 9
4 11 2 14 -7 11 -9 -3 -13 5 -14 26 0 18 -9 38 -19 47 -10 8 -11 11 -3 7 13
-7 13 -5 2 8 -10 13 -10 17 0 21 10 4 10 6 -1 6 -33 2 -80 91 -48 91 6 0 6 5
1 13 -8 11 -10 32 -4 47 6 16 6 50 -1 50 -9 0 -6 20 4 38 5 6 4 12 -2 12 -5 0
-8 9 -6 20 2 11 -1 19 -8 17 -7 -1 -12 7 -12 18 0 11 6 20 13 20 11 0 13 4 11
23 -1 4 -2 16 -3 27 0 11 -7 19 -14 17 -7 -1 -12 8 -11 25 3 45 0 55 -13 47
-8 -5 -9 -2 -5 9 4 10 2 16 -6 14 -7 -1 -11 4 -9 12 3 12 1 12 -14 0 -10 -8
-15 -9 -11 -3 4 8 -4 13 -24 16 -16 3 -32 1 -35 -4 -3 -5 -12 -4 -20 3 -10 8
-14 8 -14 0z"/>
<path d="M1956 2734 c-9 -8 -16 -13 -16 -10 0 4 -16 -10 -35 -30 -19 -20 -33
-40 -29 -45 3 -5 0 -9 -6 -9 -6 0 -9 -4 -6 -9 4 -5 1 -11 -4 -13 -6 -2 -13
-12 -14 -23 -2 -11 -8 -19 -14 -18 -18 4 1 -40 20 -44 10 -3 18 -14 18 -25 0
-10 -4 -16 -10 -13 -5 3 -10 -3 -10 -14 0 -12 4 -21 9 -21 5 0 11 -11 13 -25
3 -14 1 -25 -3 -25 -5 0 -9 -4 -9 -10 0 -5 6 -10 14 -10 16 0 29 -27 20 -41
-3 -5 0 -10 5 -10 21 -3 26 -4 40 -13 11 -7 11 -10 0 -17 -11 -7 -9 -10 9 -15
12 -4 22 -11 22 -18 0 -7 3 -6 8 2 6 9 13 7 28 -10 19 -22 19 -23 -1 -8 -16
11 -15 9 3 -12 18 -19 20 -27 10 -32 -7 -3 -3 -3 9 -1 14 4 26 -1 36 -15 7
-11 17 -17 20 -13 4 3 7 2 7 -4 0 -5 8 -19 18 -31 14 -16 22 -18 37 -10 11 6
17 8 13 3 -10 -11 15 -33 31 -27 10 4 12 1 6 -8 -6 -9 -4 -11 6 -5 19 12 60
15 54 4 -4 -5 -2 -9 4 -9 6 0 8 -7 5 -15 -5 -11 1 -15 20 -15 14 0 26 -4 26
-10 0 -5 6 -10 14 -10 8 0 17 -6 19 -12 4 -10 6 -10 6 0 1 8 7 10 19 5 20 -10
59 -9 86 3 14 5 17 4 11 -6 -6 -10 -4 -10 11 -2 14 8 21 6 32 -6 7 -10 11 -12
8 -6 -3 7 1 15 10 18 10 4 13 2 8 -7 -5 -8 -2 -7 9 2 9 7 17 10 17 5 0 -5 5
-1 11 9 8 13 18 17 35 13 14 -4 24 -2 24 4 0 6 5 8 10 5 13 -8 31 40 23 62 -4
11 -3 14 5 9 8 -5 10 -2 6 8 -3 9 -11 16 -17 16 -6 0 -8 3 -4 6 12 12 -17 33
-30 22 -9 -7 -13 -7 -13 0 0 5 -7 13 -16 16 -8 3 -12 2 -9 -4 3 -6 1 -10 -4
-10 -6 0 -11 7 -11 16 0 8 -5 12 -10 9 -6 -4 -8 -10 -5 -15 3 -4 -2 -10 -10
-14 -8 -3 -15 0 -15 6 0 7 -4 7 -13 0 -8 -7 -18 -7 -27 -2 -9 5 -19 5 -27 -2
-9 -8 -13 -7 -13 2 0 8 -3 11 -6 8 -3 -3 -16 5 -29 18 -13 13 -36 24 -51 24
-15 0 -35 10 -46 23 -11 12 -25 23 -31 23 -7 1 -18 2 -26 3 -8 1 -11 7 -7 17
3 8 2 13 -3 10 -11 -7 -33 18 -24 27 9 10 -37 48 -49 41 -11 -7 -48 29 -48 46
0 6 -4 9 -9 6 -13 -8 -21 18 -14 45 5 17 3 20 -7 14 -9 -6 -11 -4 -5 5 9 15
13 110 4 104 -4 -2 -13 4 -20 13 -12 14 -12 16 1 8 13 -8 13 -7 1 8 -9 11 -10
17 -2 17 7 0 6 9 -5 25 -9 14 -23 25 -30 25 -13 0 -18 12 -15 32 0 4 -11 3
-25 -2 -32 -13 -37 -12 -29 0 9 15 -2 12 -19 -6z"/>
<path d="M388 2681 c-7 -10 -21 -17 -30 -15 -10 1 -18 -2 -18 -7 0 -6 -5 -7
-12 -3 -7 4 -8 3 -4 -5 4 -6 2 -19 -6 -28 -7 -10 -8 -14 -1 -10 8 5 11 -4 9
-30 -1 -22 -7 -38 -14 -38 -15 0 -15 -3 -7 -37 4 -16 11 -28 16 -28 5 0 9 -10
9 -21 0 -12 8 -28 18 -35 9 -7 12 -14 6 -14 -8 0 -9 -13 -4 -40 4 -22 5 -40 1
-40 -3 0 -6 -13 -6 -30 0 -16 5 -30 11 -30 7 0 15 -7 18 -16 4 -10 2 -13 -7
-8 -6 4 -4 -2 6 -13 9 -11 14 -23 10 -27 -13 -13 -12 -41 3 -64 9 -13 13 -31
10 -39 -5 -11 -2 -13 10 -9 12 4 15 2 11 -9 -4 -8 -1 -17 5 -21 7 -5 8 -2 3 7
-7 12 -6 12 9 0 11 -9 16 -24 13 -38 -2 -13 0 -23 5 -23 5 0 6 -4 3 -10 -3 -5
-1 -10 4 -10 6 0 11 -9 11 -19 0 -11 10 -27 22 -35 12 -9 18 -16 13 -16 -6 0
-11 -11 -11 -25 -1 -14 3 -25 8 -25 6 0 5 -7 -2 -16 -11 -12 -11 -15 1 -12 8
2 13 -3 11 -12 -2 -8 -1 -12 3 -8 9 9 35 -16 35 -32 0 -7 6 -10 13 -7 8 3 13
-3 13 -14 0 -11 -4 -19 -8 -19 -4 0 -3 -12 2 -26 12 -32 12 -37 0 -29 -6 3 -7
-1 -4 -9 3 -9 10 -13 15 -10 5 3 9 -2 9 -10 0 -9 7 -16 16 -16 8 0 13 -4 9 -9
-3 -5 -1 -12 5 -16 7 -4 7 -12 0 -26 -8 -13 -7 -19 0 -19 6 0 17 -14 24 -30 7
-17 14 -28 17 -26 3 3 6 -11 7 -30 2 -20 10 -43 18 -51 11 -11 12 -19 4 -28
-8 -9 -7 -13 2 -11 7 0 14 -3 16 -9 2 -5 13 -15 25 -22 12 -7 16 -12 9 -13
-11 0 -11 -2 0 -14 7 -7 19 -23 27 -34 8 -12 18 -19 23 -16 4 3 5 -2 2 -11 -4
-10 4 -25 22 -42 16 -14 29 -33 29 -42 0 -9 5 -15 11 -14 6 1 10 -11 9 -27 -1
-20 2 -27 12 -23 12 5 18 -8 14 -30 -1 -5 3 -6 8 -3 5 4 13 -3 16 -15 5 -16 9
-18 15 -9 5 8 7 -5 6 -28 -1 -23 0 -40 2 -37 3 2 13 -6 24 -18 11 -12 17 -16
13 -10 -3 7 -1 13 4 13 6 0 11 -5 11 -11 0 -5 5 -7 10 -4 6 3 10 -3 10 -14 0
-14 5 -19 15 -14 9 3 15 2 13 -3 -5 -19 14 -53 38 -69 13 -9 22 -20 19 -25 -4
-6 -1 -10 4 -10 6 0 11 -7 11 -16 0 -9 -5 -12 -12 -8 -8 4 -10 3 -5 -2 5 -5
21 -9 35 -9 22 0 27 -5 26 -22 -1 -13 3 -20 7 -17 5 3 9 1 9 -5 0 -6 6 -8 13
-5 7 2 23 -7 35 -21 22 -25 33 -29 61 -25 13 1 13 -1 2 -14 -12 -14 -10 -16
13 -16 15 0 25 -4 22 -9 -3 -5 1 -12 10 -15 10 -4 13 -2 9 7 -4 6 6 -2 22 -19
15 -17 35 -34 43 -37 10 -4 11 -6 2 -6 -7 -1 -11 -5 -7 -11 3 -5 12 -7 21 -3
8 3 14 2 13 -3 -4 -21 2 -34 14 -32 6 2 11 -2 10 -9 -2 -8 4 -10 14 -6 12 5
14 3 8 -8 -7 -12 -6 -12 11 1 10 8 16 10 12 6 -11 -12 41 -58 58 -52 7 3 16 0
20 -6 5 -7 2 -8 -7 -3 -8 5 -11 4 -6 0 4 -5 17 -10 29 -12 12 -2 29 -10 37
-17 9 -7 21 -11 28 -9 6 2 15 -1 19 -8 5 -8 3 -9 -6 -4 -9 5 -11 4 -6 -4 4 -7
15 -11 24 -9 10 2 26 -5 37 -15 12 -11 21 -14 23 -7 3 7 9 7 20 -2 8 -7 18
-13 21 -13 3 0 5 -3 4 -6 -1 -4 6 -6 15 -6 52 0 73 -4 67 -13 -4 -6 15 -10 48
-10 39 0 56 -4 60 -15 4 -10 16 -13 41 -10 26 4 38 0 45 -13 6 -9 11 -12 11
-7 0 6 4 4 9 -4 7 -11 13 -9 30 8 23 23 37 28 25 9 -5 -7 -3 -8 7 -2 24 15 62
16 70 2 6 -8 9 -9 9 -2 0 15 122 15 132 0 5 -8 8 -8 8 0 0 7 19 11 53 9 28 -1
58 3 66 9 12 9 13 8 6 -3 -6 -11 -4 -13 9 -8 10 4 20 7 22 7 3 0 2 5 -2 11 -5
8 4 10 30 7 21 -2 36 0 36 7 0 5 5 3 10 -5 7 -11 10 -11 10 -2 0 10 5 10 20 2
15 -8 20 -8 20 2 0 9 3 9 10 -2 7 -11 10 -11 10 -2 0 10 5 10 20 2 15 -8 20
-8 20 2 0 9 3 9 10 -2 7 -11 10 -11 10 -2 0 7 5 10 11 6 6 -3 15 -1 19 6 4 7
18 13 31 14 16 1 24 7 23 19 -1 10 3 14 9 10 16 -10 47 -11 47 -2 0 9 38 21
68 21 12 1 22 5 22 10 0 5 5 6 10 3 6 -3 10 -1 10 4 0 6 11 11 24 11 14 0 31
6 38 13 7 7 24 12 38 11 14 -1 27 2 30 7 3 5 15 10 25 12 11 1 26 7 34 11 10
7 12 5 6 -5 -5 -8 1 -5 13 5 12 11 22 15 22 11 0 -4 8 1 18 11 19 21 97 31 85
10 -3 -6 -2 -7 3 -3 5 5 9 14 9 20 0 7 7 12 15 12 8 0 23 7 33 15 9 8 32 15
50 15 22 0 31 4 29 14 -2 9 5 12 22 9 14 -3 25 -2 24 1 0 3 0 13 1 21 1 13 2
13 11 0 7 -10 12 -12 18 -4 4 6 18 10 32 9 29 -3 63 12 55 24 -3 5 12 5 32 0
26 -5 40 -4 45 4 6 9 8 8 8 -2 0 -11 3 -11 15 -1 12 10 15 10 15 -1 0 -12 2
-12 9 0 6 9 10 10 16 2 5 -9 10 -9 20 -1 10 8 14 7 18 -2 3 -7 6 -8 6 -2 1 7
16 9 46 4 25 -4 48 -3 51 2 3 4 10 8 15 8 6 0 7 -6 3 -12 -5 -9 -3 -9 9 1 9 7
14 17 11 22 -8 13 10 11 25 -3 10 -11 11 -10 6 4 -4 11 -2 18 5 18 6 0 8 5 5
10 -3 6 1 13 10 16 13 6 14 8 3 15 -7 5 -8 9 -2 9 6 0 11 7 11 14 0 11 -5 12
-18 5 -13 -7 -21 -4 -31 8 -7 10 -17 18 -23 19 -5 0 -22 5 -38 12 -15 6 -41
10 -57 8 -16 -2 -27 0 -25 4 3 4 -3 14 -12 21 -13 11 -17 11 -20 1 -3 -6 -9
-9 -15 -6 -15 9 -138 11 -138 2 0 -5 -5 -8 -11 -8 -5 0 -8 4 -5 9 3 5 -2 8
-12 7 -9 0 -21 -7 -25 -13 -4 -7 -19 -13 -33 -13 -14 0 -23 -3 -20 -8 2 -4 -7
-12 -20 -19 -18 -8 -24 -8 -24 0 0 7 -4 6 -9 -3 -6 -8 -8 -17 -6 -20 2 -4 -2
-7 -10 -7 -8 0 -12 5 -8 10 3 5 -4 4 -16 -2 -11 -7 -21 -8 -21 -4 0 4 -5 0
-11 -10 -8 -14 -14 -15 -24 -7 -9 7 -15 8 -20 1 -3 -6 -16 -11 -28 -11 -40 0
-57 -3 -57 -12 0 -4 -9 -8 -20 -8 -11 0 -23 -6 -26 -14 -3 -8 -14 -13 -25 -11
-10 2 -19 -1 -19 -6 0 -15 -43 -28 -62 -17 -14 6 -18 5 -18 -7 0 -14 -9 -17
-58 -18 -14 0 -21 -4 -18 -12 2 -7 -3 -12 -12 -11 -18 1 -64 -39 -55 -47 3 -3
-16 -4 -42 -3 -37 2 -48 -2 -56 -16 -8 -15 -14 -17 -24 -8 -10 8 -15 8 -20 0
-5 -8 -10 -8 -20 0 -10 8 -15 8 -20 0 -4 -7 -16 -9 -27 -7 -14 4 -17 2 -9 -7
8 -10 -12 -12 -94 -12 -58 1 -105 -3 -105 -8 0 -5 -6 -4 -12 1 -18 13 -99 8
-108 -7 -4 -7 -15 -10 -24 -7 -9 4 -16 1 -16 -6 0 -8 -3 -8 -9 2 -7 11 -9 11
-14 0 -5 -12 -7 -12 -15 0 -7 9 -11 10 -17 2 -5 -9 -10 -9 -21 0 -11 9 -14 9
-14 -1 0 -10 -3 -10 -15 0 -12 10 -15 10 -15 0 0 -9 -4 -9 -17 1 -11 10 -14
10 -9 1 9 -16 -6 -16 -23 1 -9 7 -11 7 -8 1 11 -19 -19 -24 -42 -8 -11 8 -21
11 -21 6 0 -5 -14 -7 -31 -4 -23 3 -29 9 -25 21 4 11 2 10 -9 -3 -14 -18 -20
-15 -16 7 1 5 -3 6 -9 2 -6 -4 -18 -1 -27 7 -10 8 -14 8 -10 1 4 -6 3 -14 -3
-18 -5 -3 -10 -1 -10 5 0 6 -5 8 -10 5 -6 -4 -18 -1 -27 7 -12 9 -15 9 -9 1 4
-7 2 -13 -3 -13 -6 0 -11 7 -11 16 0 8 -4 12 -10 9 -5 -3 -10 -1 -10 6 0 8 -4
8 -15 -1 -11 -9 -15 -9 -15 -1 0 7 -3 10 -8 8 -10 -5 -42 30 -34 38 4 4 3 6
-3 5 -30 -6 -57 1 -52 14 4 10 -3 13 -24 11 -19 -2 -29 2 -29 11 0 7 -8 11
-20 9 -11 -2 -23 1 -26 7 -4 7 -2 8 4 4 7 -4 12 -5 12 -2 0 3 -10 10 -21 17
-17 9 -20 8 -14 -3 5 -7 -3 -3 -17 10 -13 12 -28 19 -32 15 -4 -4 -4 0 -1 9 4
11 -1 17 -19 20 -15 3 -26 1 -26 -6 0 -6 -5 -3 -11 6 -5 10 -16 18 -23 18 -8
0 -20 8 -27 17 -10 11 -10 14 -1 9 6 -4 12 -5 12 -1 0 3 -11 10 -25 15 -14 5
-25 16 -25 24 0 7 -7 17 -16 20 -8 3 -12 2 -9 -4 3 -6 1 -10 -5 -10 -6 0 -13
7 -16 15 -4 8 -13 15 -21 15 -8 0 -12 4 -9 9 3 5 -1 11 -9 15 -8 3 -15 13 -15
21 0 9 -5 13 -10 10 -6 -3 -13 1 -16 9 -3 9 -14 16 -23 16 -14 0 -14 2 -1 10
11 7 7 10 -17 10 -30 0 -33 3 -33 33 0 24 -3 28 -10 17 -8 -13 -10 -12 -10 4
0 12 -5 16 -16 12 -12 -4 -14 -1 -9 13 5 16 1 19 -20 16 -17 -1 -29 3 -33 14
-3 9 -11 19 -17 23 -7 4 -10 19 -7 34 3 19 1 25 -7 20 -10 -7 -16 6 -12 27 1
5 -3 6 -8 3 -5 -4 -12 3 -16 14 -3 11 -12 19 -18 17 -7 -1 -11 4 -9 11 1 8 -6
16 -17 19 -13 3 -17 11 -14 24 3 11 -1 21 -11 25 -9 3 -13 10 -10 15 3 6 -9
23 -28 39 -18 16 -28 30 -23 30 6 1 -1 6 -15 11 -20 8 -22 12 -10 19 13 9 13
10 0 10 -12 0 -12 2 -1 9 9 6 10 11 2 15 -6 4 -9 12 -6 17 4 5 1 9 -5 9 -18 0
-37 24 -34 43 1 9 -1 15 -4 13 -10 -5 -32 20 -25 28 4 3 -1 6 -9 6 -11 0 -15
8 -14 25 2 13 0 23 -3 22 -3 -1 -7 2 -8 7 -1 5 -7 13 -15 18 -10 8 -10 11 0
15 9 3 7 11 -8 30 -11 14 -17 30 -14 35 3 5 0 16 -8 25 -11 14 -11 16 2 9 8
-4 6 0 -5 9 -11 9 -19 21 -18 26 2 5 0 8 -5 8 -20 -3 -23 3 -11 18 12 14 12
16 0 9 -9 -6 -12 -5 -9 5 3 8 11 13 18 11 11 -3 11 0 0 13 -9 11 -15 13 -20 4
-6 -8 -9 -8 -14 0 -4 6 -4 11 1 11 4 0 1 5 -7 10 -8 5 -10 10 -5 10 6 0 10 11
10 24 0 13 -3 22 -7 20 -10 -6 -20 15 -23 46 -1 16 -14 39 -27 52 -14 13 -23
29 -21 36 3 6 -3 12 -14 12 -15 0 -16 2 -3 10 10 6 11 10 3 10 -7 0 -13 9 -13
21 0 11 -4 17 -10 14 -5 -3 -10 3 -10 15 0 12 -7 29 -16 37 -8 9 -13 24 -11
34 3 11 2 19 -2 19 -3 0 -12 9 -19 21 -11 17 -11 20 0 13 14 -9 -9 25 -27 39
-6 4 -4 11 5 17 8 5 10 10 3 10 -6 0 -10 13 -9 30 2 21 -2 30 -13 30 -8 0 -11
3 -8 7 4 3 2 12 -4 20 -6 7 -7 13 -2 13 12 0 0 109 -13 118 -5 4 -9 30 -9 57
1 37 -4 53 -17 63 -10 7 -15 19 -12 25 5 9 4 9 -6 0 -15 -14 -55 2 -45 18 11
17 -4 9 -17 -10z"/>
<path d="M3780 2659 c0 -5 5 -7 10 -4 6 3 10 8 10 11 0 2 -4 4 -10 4 -5 0 -10
-5 -10 -11z"/>
<path d="M3417 2352 c-4 -6 -14 -9 -22 -6 -8 3 -25 -6 -38 -20 -25 -27 -43
-35 -31 -13 4 7 3 9 -2 4 -5 -5 -10 -17 -10 -28 -1 -10 -2 -28 -3 -40 -1 -14
-6 -19 -16 -16 -11 5 -12 1 -5 -18 7 -17 5 -25 -6 -29 -8 -3 -14 -16 -14 -30
0 -14 -5 -28 -12 -32 -7 -5 -8 -3 -3 6 5 9 4 11 -3 6 -7 -4 -12 -14 -12 -22 0
-8 -4 -13 -9 -10 -5 3 -12 -1 -15 -10 -3 -8 -10 -12 -16 -9 -5 3 -10 1 -10 -4
0 -6 -7 -11 -15 -11 -8 0 -15 -5 -15 -11 0 -6 -5 -9 -12 -7 -14 5 -53 -31 -53
-49 0 -19 -45 -55 -60 -49 -8 3 -17 -3 -21 -16 -5 -16 -8 -18 -15 -7 -7 12 -9
12 -9 0 0 -7 -6 -11 -14 -8 -10 4 -13 1 -10 -7 4 -10 -4 -12 -30 -9 -28 3 -36
0 -36 -12 0 -9 -5 -13 -10 -10 -6 3 -13 -1 -16 -9 -3 -9 -10 -13 -15 -10 -5 3
-9 1 -9 -5 0 -6 -7 -8 -15 -4 -10 3 -15 0 -13 -8 2 -10 -9 -14 -39 -14 -24 0
-43 -4 -43 -10 0 -5 -5 -3 -10 5 -9 13 -10 13 -10 0 0 -13 -1 -13 -10 0 -6 10
-10 11 -10 3 0 -7 -5 -13 -11 -13 -5 0 -7 5 -3 12 4 7 3 8 -5 4 -6 -4 -9 -11
-6 -16 8 -13 -18 -18 -37 -8 -13 6 -18 5 -18 -4 0 -9 -3 -9 -10 2 -8 12 -10
12 -10 1 0 -11 -3 -11 -15 -1 -8 7 -15 8 -15 3 0 -5 -21 -9 -47 -8 -33 0 -47
-4 -46 -12 4 -19 -14 -16 -25 3 -5 9 -15 14 -23 12 -8 -3 -19 2 -25 10 -7 10
-28 15 -60 15 -27 0 -52 5 -56 11 -6 8 -8 7 -8 -1 0 -7 -7 -13 -16 -13 -8 0
-12 5 -9 10 5 9 -15 15 -37 11 -5 0 -8 4 -8 10 0 8 -5 8 -15 -1 -8 -7 -15 -9
-15 -5 0 5 -9 0 -19 -9 -11 -10 -24 -15 -29 -12 -6 3 -13 -1 -16 -10 -3 -8
-10 -12 -16 -9 -5 3 -10 1 -10 -5 0 -6 -4 -9 -9 -5 -5 3 -12 1 -16 -4 -3 -6
10 -24 30 -42 19 -18 35 -39 35 -47 0 -9 3 -12 6 -9 4 4 15 -3 25 -14 10 -12
22 -18 28 -15 5 3 12 0 14 -6 4 -9 6 -9 6 -2 1 16 72 -20 84 -42 8 -13 11 -14
18 -3 6 10 10 7 18 -11 5 -14 10 -20 10 -15 1 13 41 14 41 2 0 -5 7 -4 15 3 8
7 15 9 15 4 0 -5 11 -9 25 -9 14 0 25 2 25 5 0 3 9 6 20 6 11 0 20 -4 20 -9 0
-5 7 -4 15 3 8 7 15 9 15 4 0 -5 11 -9 25 -9 14 0 25 3 25 6 0 8 33 5 48 -5 7
-4 12 -2 12 6 0 8 3 9 8 3 8 -12 52 -15 52 -4 0 4 11 6 24 5 16 -2 23 1 20 9
-4 8 6 11 30 10 22 -2 37 2 40 11 4 10 21 13 58 11 34 -1 57 3 63 11 6 7 24
14 40 16 17 2 34 4 38 5 5 0 5 6 2 11 -3 6 1 10 10 10 8 0 18 6 21 14 3 8 14
13 25 11 10 -2 18 1 16 8 -1 7 6 12 16 12 10 0 25 9 33 19 8 11 14 16 14 10 0
-5 7 -1 14 9 8 10 18 16 23 15 5 -2 21 9 35 24 14 15 29 24 34 20 4 -4 3 0 -4
9 -10 13 -10 19 1 28 8 6 17 8 20 5 4 -4 5 3 2 15 -2 11 0 21 6 21 5 0 8 5 7
12 -2 7 4 13 12 14 8 0 21 2 28 2 6 1 12 10 12 19 0 9 3 14 6 10 9 -8 64 44
58 55 -3 5 0 7 8 6 7 -2 13 6 13 17 -1 11 10 31 24 45 13 14 20 19 16 11 -5
-9 -4 -12 3 -7 7 4 12 14 12 22 0 8 4 13 9 10 5 -3 12 2 15 11 4 9 2 20 -5 23
-8 6 -8 9 0 14 6 4 9 11 6 16 -3 4 2 10 9 13 24 9 14 50 -18 79 -26 22 -28 29
-17 42 12 14 10 15 -17 12 -17 -2 -33 2 -35 7 -2 8 -6 7 -10 -1z"/>
<path d="M2090 1740 c0 -5 5 -10 11 -10 5 0 7 5 4 10 -3 6 -8 10 -11 10 -2 0
-4 -4 -4 -10z"/>
</g>
</svg>
